<?xml version="1.0" encoding="UTF-8"?>
<svg width="3301px" height="2122px" viewBox="0 0 3301 2122" version="1.1" xmlns="http://www.w3.org/2000/svg" xmlns:xlink="http://www.w3.org/1999/xlink">
    <title>Group 21</title>
    <defs>
        <path d="M24.4287593,0.893605427 C41.8567144,41.0367258 59.2854322,81.1810112 76.7165909,121.325297 L76.7165909,121.325297 L109.719995,197.35118 C114.826436,209.056844 119.932876,220.755339 125.039317,232.457419 C127.70871,238.166887 130.37294,243.872771 133.037169,249.578654 C143.699252,272.40219 154.366497,295.229309 165.02858,318.052844 L165.02858,318.052844 L169.024924,326.61167 C169.763267,328.443144 170.165999,328.375046 170.702976,329.073945 C171.208973,329.622312 171.720134,330.170679 172.231294,330.715462 C174.270772,332.905346 176.31025,335.095229 178.354892,337.281529 C182.433848,341.661297 186.512805,346.03748 190.591761,350.417248 C194.675881,354.793431 198.754837,359.173199 202.833794,363.552966 C203.344954,364.097749 203.856114,364.646116 204.367275,365.194483 C204.873272,365.764355 205.420575,365.972232 205.942062,366.38082 C207.005688,367.101223 208.064152,367.821627 209.127778,368.542031 C211.244705,369.982838 213.366795,371.427229 215.488885,372.868037 L215.488885,372.868037 L240.938475,390.172061 C242.033082,390.820783 243.122524,391.469505 244.21713,392.114642 C244.764433,392.437211 245.311736,392.763364 245.853876,393.085933 C246.747116,393.526777 247.640356,393.967621 248.528432,394.408465 L248.528432,394.408465 L251.233968,395.763254 C253.030774,396.670031 254.832744,397.580391 256.62955,398.487168 C258.441846,399.379609 260.166366,400.361651 262.035458,401.189578 C263.920039,401.996 265.809783,402.806006 267.694365,403.608844 C282.492199,410.447303 298.549863,415.594067 314.715955,420.07419 C318.805238,421.084905 322.899684,422.102789 326.99413,423.113505 C331.09374,424.102716 335.312103,424.686924 339.447855,425.536355 C341.523476,425.937774 343.599097,426.339193 345.674718,426.737028 C347.755502,427.116942 349.877592,427.288979 351.973866,427.586459 C356.166414,428.145578 360.358961,428.704697 364.556672,429.270985 L364.556672,429.270985 L364.634121,429.270985 C372.843666,429.776343 381.027395,430.353382 389.216287,431.009272 C397.534261,431.009272 405.831581,431.080954 414.144391,431.206398 C473.872705,429.758422 536.327208,415.18548 597.872981,393.874434 C659.594304,372.39852 720.344939,344.571584 783.078257,315.694508 L783.078257,315.694508 L783.171195,315.651498 C843.524261,287.93567 907.088859,260.911572 977.721928,239.145346 C995.411175,233.740526 1013.52897,228.676196 1032.13211,224.074214 C1050.80237,219.529578 1069.9683,215.465211 1089.65572,212.045982 C1128.95311,205.157346 1170.79081,201.214838 1213.67149,201.480061 C1232.90454,201.727364 1252.27184,202.83485 1271.57202,204.838361 C1290.8567,206.981651 1309.96584,210.106985 1328.69806,214.063829 C1328.73936,214.074581 1328.78067,214.081749 1328.82198,214.088917 C1356.24909,220.049272 1382.04978,228.020306 1405.90909,237.048648 C1429.79422,246.084159 1451.8051,256.15189 1472.40641,266.545774 C1513.57805,287.387303 1549.33346,309.454593 1583.66382,329.751339 C1617.89091,350.058838 1650.74458,368.764245 1683.51047,382.785235 C1716.29702,396.874324 1748.2936,405.852489 1780.50703,408.626581 L1780.50703,408.626581 L1780.57931,408.630165 C1786.13495,408.873884 1791.65962,409.192869 1797.19977,409.569199 C1818.6272,410.124734 1841.99084,408.332685 1867.079,404.866862 C1892.17749,401.422544 1918.8611,396.358214 1947.20726,390.910385 C1975.57925,385.480477 2005.67059,379.624061 2038.19897,375.014911 C2070.67056,370.43085 2105.87351,367.11556 2143.0643,367.617333 C2143.1056,367.617333 2143.14691,367.617333 2143.19338,367.620917 C2172.3605,368.094018 2199.81342,370.878862 2225.31465,374.376942 C2250.84685,377.896526 2274.55126,382.140098 2296.85644,386.053933 C2341.37903,393.992709 2380.70223,400.268465 2414.14451,400.139437 C2418.46614,399.985321 2422.79293,399.87063 2427.12489,399.806116 L2427.12489,399.806116 L2427.19717,399.802532 C2456.69474,398.358141 2487.77226,391.301052 2519.65008,379.971719 C2551.55371,368.678226 2583.75165,353.42789 2616.8893,336.50378 C2616.91512,336.489443 2616.9461,336.475107 2616.97191,336.460771 C2650.64654,319.310862 2686.01471,300.415498 2726.23631,282.788905 C2766.32884,265.255498 2812.17321,248.782985 2864.28575,239.374728 C2864.32706,239.36756 2864.37353,239.356807 2864.41484,239.349639 C2892.44088,234.32115 2920.78188,232.03808 2949.24164,232.263878 C2970.1166,232.611535 2991.05353,234.077431 3011.9543,237.170508 C3032.84476,240.47863 3053.69907,245.062691 3074.05254,251.807963 C3094.34406,258.710936 3114.0986,267.456135 3132.05634,278.548917 C3134.28686,279.932379 3136.40378,281.466373 3138.56202,282.932269 C3141.01972,284.670557 3143.47225,286.40526 3145.92995,288.143547 C3148.69228,290.039535 3151.36684,292.078887 3153.58187,294.344037 C3155.92081,296.544673 3158.2546,298.745309 3160.58838,300.945945 C3170.35206,309.554948 3178.19501,319.042055 3186.67821,328.235266 C3186.7918,332.199278 3186.91056,336.159706 3187.02931,340.120135 C3187.08611,342.102141 3187.1429,344.080563 3187.1997,346.062569 C3187.1016,348.076832 3186.99317,350.094679 3186.89507,352.105358 C3186.55946,358.209076 3186.23417,364.312795 3185.90373,370.423682 C3185.47001,378.484318 3185.03114,386.544954 3184.59743,394.609174 C3183.73,410.734031 3182.86258,426.858887 3181.98999,442.983743 C3180.25515,475.233456 3178.5203,507.483168 3176.78029,539.732881 L3176.78029,539.732881 L3166.35055,733.231156 L3142.70809,1171.96416 L3142.70809,1172 L0.672450911,1172 L0.672450911,0.893605427 M1211.60619,308.992245 C1156.83975,308.551401 1098.05114,319.647768 1040.321,337.496575 C982.415309,355.298789 925.485469,379.165297 868.793138,405.250361 C868.767322,405.264697 868.736342,405.279034 868.710526,405.289786 C805.70872,434.209872 740.419601,464.477578 667.158445,490.042948 C630.427184,502.719902 591.635792,514.167511 550.221476,522.905541 C508.879445,531.629235 464.723451,537.564502 419.085608,538.671988 C406.254966,538.650483 393.398508,538.539376 380.567867,538.363755 C367.711409,537.532245 354.854952,536.625468 342.02431,535.643425 C341.983004,535.639841 341.941698,535.636257 341.895229,535.632673 C334.883555,534.725896 327.866717,533.819119 320.855042,532.912343 C317.359532,532.421321 313.817552,532.030654 310.373673,531.43211 C306.945285,530.797725 303.516896,530.163339 300.088507,529.52537 C293.262709,528.192086 286.318157,527.052343 279.626603,525.482508 C272.966028,523.848159 266.310617,522.210226 259.655206,520.575878 C233.44662,513.443523 208.007356,504.985052 184.664366,494.383291 L184.664366,494.383291 L155.569531,480.373052 L155.569531,1064.47706 L2993.5009,1064.47706 C3006.14566,829.826177 3018.78527,595.178875 3031.43003,360.527988 L3031.43003,360.527988 L3031.38614,360.517683 L3031.34226,360.510067 L3031.22866,360.488563 L3031.22866,360.488563 L3030.31994,359.843425 C3029.64871,359.381076 3029.08592,358.864966 3028.35791,358.420538 C3022.48214,354.87945 3015.31041,351.650177 3007.13701,348.779315 C2998.78805,346.015976 2989.20509,343.922862 2979.16776,342.256257 C2968.97037,340.768856 2958.19985,340.0377 2947.31575,339.779645 C2932.43014,339.650618 2917.32768,340.901468 2903.37661,343.417505 L2903.37661,343.417505 L2903.29917,343.431841 C2872.3972,348.972856 2840.94793,359.671388 2808.80162,373.764061 C2776.60368,387.824477 2743.95654,405.085492 2708.70713,423.099168 C2708.68131,423.113505 2708.6555,423.131425 2708.62452,423.145761 C2672.86911,441.342226 2634.41849,459.975951 2590.06629,475.738813 C2567.90052,483.591572 2544.1961,490.680917 2518.80847,496.207596 C2493.46214,501.730691 2466.37065,505.637358 2438.46852,507.03874 L2438.46852,507.03874 L2438.32911,507.049492 C2430.41903,507.250202 2422.50896,507.454495 2414.59371,507.662373 C2385.00837,507.683878 2357.08559,505.185761 2331.23327,501.831046 C2305.33964,498.454826 2281.36157,494.236343 2258.81372,490.283083 C2213.82128,482.26904 2174.06953,475.588281 2139.79597,475.118765 C2139.77015,475.118765 2139.74434,475.118765 2139.71852,475.11518 C2117.87803,474.824869 2094.24074,476.806875 2068.98219,480.390972 C2043.71847,483.953566 2016.95226,489.071657 1988.49766,494.540991 C1960.02242,499.992404 1929.81232,505.841651 1897.05159,510.361199 C1864.35798,514.844905 1828.77812,517.980991 1791.1846,517.0097 C1781.1989,516.515095 1771.19771,515.941639 1761.22234,515.307254 C1761.17587,515.30367 1761.1294,515.300086 1761.0881,515.300086 C1731.65249,512.74104 1702.89843,507.41507 1676.2458,500.20745 C1649.54154,493.010581 1624.89226,484.025248 1602.18434,474.298006 C1556.7427,454.743168 1518.68449,432.54685 1483.07882,411.518948 C1447.56092,390.448037 1414.4181,370.208636 1381.29078,353.499572 C1348.21509,336.758251 1315.36142,323.787401 1282.53357,316.698055 C1282.50775,316.694471 1282.48193,316.687303 1282.45612,316.680135 C1271.06602,314.321798 1259.50553,312.411474 1247.7127,311.07819" id="path-1"></path>
        <path d="M1402.58093,16.0221519 C1466.05437,5.94409283 1532.62069,-0.784177215 1602.04235,0.220042194 C1622.07111,0.614556962 1642.25476,1.62594937 1662.53136,3.38691983 C1682.82345,5.29852321 1703.14652,7.97046414 1723.36116,11.5031646 C1743.55514,15.1864979 1763.55808,19.7772152 1783.17377,25.257384 C1802.71717,30.8881857 1821.74939,37.4729958 1840.11554,44.8611814 C1840.15168,44.8755274 1840.18783,44.8898734 1840.22913,44.9042194 C1869.25766,56.8257384 1894.08837,69.9594937 1916.94149,82.5158228 C1939.76364,95.0972574 1960.665,107.23038 1980.70925,117.710127 C2000.6967,128.197046 2019.8167,136.973207 2037.61488,142.822785 C2055.50599,148.711814 2071.45052,151.663502 2087.3021,152.050844 L2087.3021,152.050844 L2087.36406,152.058017 C2097.57723,152.312658 2109.38072,151.408861 2123.10498,149.303586 C2136.81376,147.216245 2152.24195,143.948945 2169.30692,140.114979 C2186.39255,136.298945 2205.13046,131.901899 2226.09895,127.992616 C2247.0313,124.115612 2270.41109,120.704852 2296.02146,119.625316 C2296.06793,119.62173 2296.1144,119.618143 2296.16088,119.618143 C2303.96791,119.453165 2311.79043,119.356329 2319.60779,119.313291 C2349.10102,119.775949 2377.26727,123.355274 2402.95509,128.401477 C2428.72037,133.462025 2452.21375,139.903376 2474.09616,146.574262 C2517.74739,159.969831 2555.67242,174.269198 2590.80407,184.50865 C2590.82989,184.519409 2590.86087,184.526582 2590.88669,184.533755 C2622.3007,193.338608 2654.97458,200.131435 2688.50557,204.844093 C2722.23278,208.950633 2756.55378,211.020042 2791.02451,211.027215 C2847.28988,210.320675 2903.53459,203.635443 2956.82585,191.29789 C2963.56407,189.89557 2969.95117,187.862025 2976.53964,186.19789 C2983.02485,184.36519 2989.76306,182.901899 2996.06755,180.807384 C3002.7438,178.651899 3009.42522,176.5 3016.10147,174.348101 C3020.21669,173.046203 3024.43001,171.751477 3027.7862,170.356329 C3031.36443,168.903797 3034.90651,167.781224 3038.52604,166.066878 C3045.74961,162.774473 3052.96801,159.485654 3060.18642,156.193249 C3074.63356,149.608439 3089.07554,143.027215 3103.51752,136.442405 C3107.0596,134.939662 3110.92697,132.784177 3114.67559,130.865401 C3118.44485,128.903586 3122.21412,126.941772 3125.98855,124.983544 L3125.98855,124.983544 L3148.60417,113.219831 L3148.60417,113.219831 L3235.43159,68.0729958 L3235.43159,845.048312 C2175.42036,845.055485 1115.40914,845.069831 55.4030825,845.069831 L55.4030825,845.069831 L55.273998,845.069831 L55.2688346,845.01962 C36.8458897,636.375105 18.4229449,427.727004 0,219.086076 L0,219.086076 L8.06520176,205.196915 L8.06520176,205.196915 L16.1304035,191.305063 C19.9254889,185.107595 24.7325969,179.308228 29.1008176,173.329536 C33.3244636,167.264768 38.9267324,161.892194 43.9868462,156.236287 C46.6304975,153.474684 49.0779403,150.591139 51.9332902,147.951477 L51.9332902,147.951477 L60.6180977,140.097046 C83.8997845,119.230802 111.343157,101.05443 141.662532,85.8369198 C202.652393,55.9075949 275.394111,37.3116034 352.354311,35.0054852 C363.36264,35.0018987 374.381296,35.0736287 385.389625,35.2314346 C396.423771,35.9559072 407.46308,36.7592827 418.476573,37.6487342 C418.51788,37.6523207 418.559187,37.6559072 418.605657,37.6594937 C449.983526,41.0236287 479.445781,47.0130802 506.589677,53.9601266 C533.77488,60.921519 558.812116,68.8225738 582.413933,76.5335443 C629.503971,92.0343882 671.533896,106.649367 710.930496,114.744093 C710.961476,114.751266 710.987293,114.758439 711.01311,114.762025 C747.802202,122.397679 786.708281,125.772574 827.0188,125.421097 C858.092029,124.918987 889.826171,122.555485 921.93724,118.7 C954.099943,114.600633 986.613756,108.951899 1019.30829,102.471097 C1052.04413,95.7822785 1085.03297,88.1609705 1118.26449,80.0949367 C1151.57863,71.899789 1185.23355,63.3208861 1219.4203,54.6702532 C1219.45128,54.6630802 1219.48226,54.6559072 1219.5184,54.6451477 M1598.40733,107.786287 C1546.41208,107.008017 1491.9384,112.165401 1437.27369,120.884177 C1382.53668,129.649578 1327.5415,141.872363 1272.39659,155.777215 C1272.36561,155.784388 1272.33463,155.795148 1272.30365,155.802321 C1238.61775,164.327426 1204.46714,173.035443 1169.68661,181.585654 C1134.73051,190.071308 1099.16514,198.31308 1062.60324,205.780169 C1025.84513,213.071519 988.245384,219.652743 949.334142,224.60211 C910.273162,229.318354 870.060747,232.417089 828.882781,233.008861 C775.333352,233.503797 719.935433,228.941772 666.675154,217.855907 C666.633847,217.845148 666.597703,217.837975 666.556396,217.830802 C608.969203,205.755063 560.60381,188.217089 516.420755,173.87827 C472.304824,159.342194 432.09241,147.868987 394.952207,143.991983 L394.952207,143.991983 L394.874757,143.98481 C388.766476,143.62616 382.689176,143.177848 376.606713,142.654219 C370.400329,142.686498 364.209434,142.647046 358.00305,142.528692 C314.243392,143.85211 269.23936,154.981013 231.779028,173.354641 C213.242489,182.704641 196.704178,193.761814 183.072851,205.988186 L183.072851,205.988186 L177.90947,210.557384 C176.205554,212.081646 174.935362,213.778059 173.401838,215.363291 C170.598122,218.637764 167.035389,221.661181 164.877095,225.118565 C164.410325,225.797131 163.918565,226.469241 163.414247,227.137993 L160.33712,231.135016 C159.327493,232.470456 158.367104,233.817257 157.55542,235.200211 C157.147513,235.924684 156.734443,236.649156 156.321372,237.377215 L156.739606,236.641983 L178.846623,487.008228 L178.846623,487.008228 L200.963968,737.474895 L3080.53014,737.474895 L3080.53014,272.173418 L3069.43404,275.741535 L3069.43404,275.741535 L3057.52728,279.568776 C3049.25554,282.251477 3040.62237,284.252743 3032.17508,286.612658 C3023.64001,288.796835 3015.265,291.325316 3006.59052,293.190295 C2937.63873,309.204008 2865.434,317.764979 2792.82137,318.618565 C2748.30786,318.686709 2703.77369,316.029114 2659.73005,310.563291 C2615.81549,304.49135 2572.62897,295.553797 2530.84689,283.718354 L2530.84689,283.718354 L2530.73846,283.686076 C2485.95129,270.473418 2447.55638,255.922996 2411.79997,245.084599 C2376.14682,234.09557 2343.91699,227.22384 2316.24643,226.883122 C2312.62174,226.990717 2309.01253,227.030169 2305.38784,227.019409 L2305.38784,227.019409 L2305.32071,227.026582 C2293.9716,227.489241 2280.89276,229.182068 2266.11516,231.940084 C2251.34789,234.669409 2234.9903,238.438819 2216.87715,242.509494 C2198.74852,246.55865 2178.81271,250.94135 2156.37781,254.384388 C2134.01521,257.809494 2108.8334,260.237553 2082.03028,259.591983 C2081.97865,259.588397 2081.93218,259.58481 2081.88571,259.581224 C2072.03398,259.057595 2062.1461,258.476582 2052.35117,257.673207 C2042.78342,256.392827 2033.10208,255.13038 2023.70473,253.534388 C2014.64816,251.601266 2005.33342,249.757806 1996.58665,247.512658 C1988.15485,245.088186 1979.34096,242.767722 1971.33255,240.067089 C1938.90652,229.336287 1911.80393,216.324473 1887.45858,203.62827 C1863.13906,190.874684 1841.43736,178.228692 1820.73221,166.837975 C1800.07868,155.447257 1780.41652,145.297468 1761.57018,137.593671 L1761.57018,137.593671 L1761.49789,137.564979" id="path-3"></path>
        <path d="M1610.19272,0.924148352 C1668.48442,1.03537363 1722.91892,10.1450824 1771.36882,22.9395769 C1820.24214,35.6264341 1864.25137,51.789978 1906.00411,68.4486538 C1906.03509,68.4630055 1906.06607,68.4737692 1906.09705,68.4881209 C1955.97211,88.5947802 2002.0984,108.446698 2047.52245,123.605626 C2092.84839,138.825549 2136.98154,148.990104 2179.26612,150.773297 C2179.2971,150.776885 2179.32292,150.776885 2179.34874,150.776885 L2179.34874,150.776885 L2196.27497,151.121324 C2239.43736,151.024451 2286.7203,143.105929 2337.36473,132.076687 C2388.11243,121.17661 2442.18548,107.180165 2503.0125,97.2847033 C2503.04348,97.2775275 2503.08479,97.2703516 2503.12093,97.2667637 C2557.57609,88.7060055 2613.21886,84.6337253 2668.70157,84.8597637 C2729.73513,85.5737582 2790.65509,90.9986813 2849.56642,102.196555 C2860.14439,104.034078 2870.56429,106.270666 2880.95597,108.576815 L2893.42074,111.356495 C2900.70139,112.956703 2907.79615,114.962346 2914.98903,116.75989 C2922.15092,118.611253 2929.35412,120.390857 2936.35077,122.554368 C2943.3939,124.638945 2950.43703,126.719934 2957.47499,128.804511 C2961.00172,129.841418 2964.40452,131.075659 2967.87445,132.202264 L2967.87445,132.202264 L2982.11045,136.984951 C2988.38937,138.997769 2994.28618,141.261742 3000.20881,143.514951 C3006.16242,145.764571 3012.1212,148.014192 3018.08514,150.263813 L3018.08514,150.263813 L3053.84296,163.768714 C3055.93937,180.247995 3058.05644,196.720099 3059.62101,213.443357 L3059.62101,213.443357 L3062.69334,243.370132 C3064.40765,260.02522 3066.1168,276.683896 3067.82594,293.338984 C3071.2494,326.652747 3074.67285,359.962923 3078.09631,393.276687 C3086.91055,479.10672 3095.72478,564.936753 3104.54935,650.770374 C3104.54935,650.788313 3104.54935,650.806253 3104.54935,650.82778 L3104.54935,650.82778 L0.140835433,650.82778 L0.140835433,650.684264 L0.140835433,202.137846 C0.187307687,202.101967 0.218289189,202.058912 0.259597859,202.015857 C10.1530243,191.112192 20.0516144,180.20494 29.9450408,169.297687 C36.8487523,162.416071 44.2223499,155.782022 51.4152221,149.054687 C55.1046027,145.746632 58.9979448,142.566845 62.94615,139.421143 L70.8715339,133.14728 L70.8715339,133.14728 L74.8062565,129.99211 C78.65829,126.777341 82.9389009,123.871132 87.1885303,120.943396 L87.1885303,120.943396 L99.9425822,112.160187 C134.564411,89.2262527 173.37907,69.6900714 215.038864,53.8853187 C298.280998,22.3368077 393.497482,5.34804396 490.325004,7.71606593 C503.197819,8.40853297 516.075797,9.101 528.948611,9.78987912 C528.98992,9.79346703 529.031228,9.79705495 529.067373,9.80064286 C565.749472,12.7893736 601.212966,18.4008681 634.931167,25.508522 C668.685514,32.6233516 700.777187,41.2128132 731.541819,50.3153462 C793.050429,68.5598791 849.555526,88.7992912 904.532202,105.755764 C904.563184,105.766527 904.589002,105.773703 904.619983,105.784467 C941.957857,117.183264 979.414494,127.27606 1016.57164,134.247374 C1053.72879,141.491368 1090.46769,145.40578 1125.38384,145.685637 C1156.26724,145.552885 1185.3692,142.237654 1212.17852,135.470852 L1212.17852,135.470852 L1212.25081,135.452912 C1232.88966,130.092571 1254.1378,121.926484 1276.20696,111.747577 C1298.29161,101.590198 1321.10948,89.4774066 1345.69847,76.7116154 C1370.3236,63.9709396 1396.78697,50.4660385 1427.12302,38.037511 C1457.34548,25.6592143 1492.01378,14.3680549 1530.44117,7.75553297 C1530.48248,7.74835714 1530.52379,7.74118132 1530.57026,7.73400549 C1556.94585,3.39263187 1583.77066,1.18247802 1610.19272,0.924148352 Z M1611.02922,108.561511 C1596.11163,108.783962 1581.76203,110.025379 1567.86166,112.203242 L1567.86166,112.203242 L1567.78937,112.214005 C1547.73918,115.658401 1527.16746,122.005418 1505.65597,130.81733 C1484.14448,139.600538 1461.91009,150.741005 1438.35898,162.96861 C1414.76657,175.189038 1389.83678,188.532484 1361.7882,201.463319 C1333.78608,214.351099 1302.36051,226.926731 1266.60786,236.240951 C1266.56655,236.255302 1266.52524,236.266066 1266.48393,236.27683 C1220.40411,248.099 1171.78381,253.251242 1125.15665,253.323 C1072.69463,252.9965 1022.50976,247.133852 975.593442,238.04567 C928.408614,229.147648 884.254809,217.128143 841.675897,204.132725 L841.675897,204.132725 L841.572626,204.104022 C781.246477,185.414588 725.448791,165.47656 670.833565,149.34172 C616.321612,133.156648 563.054082,120.893165 511.005157,116.706071 C510.97934,116.702484 510.953522,116.698896 510.92254,116.695308 C502.087648,116.27911 493.268247,115.805505 484.443683,115.278082 C417.802471,113.620467 349.193933,125.586154 289.26538,148.36222 C259.285613,159.732313 231.44357,173.768225 206.963019,189.978412 C203.96814,192.045049 200.968098,194.111687 197.97322,196.174736 C194.952523,198.23061 191.880191,200.250604 189.251927,202.528929 C183.8818,207.006643 178.000478,211.226027 172.909184,215.832907 C168.01927,220.533071 162.829869,225.100484 158.032899,229.83294 C156.93822,231.056418 155.838376,232.279896 154.743697,233.506962 L155.048348,233.16611 L155.048348,543.190418 L2938.18901,543.190418 L2938.18901,543.190418 L2906.12315,231.013363 L2906.03021,230.981071 C2905.36152,230.755033 2904.69026,230.529891 2904.01835,230.30475 L2902.00261,229.628429 C2899.30722,228.74939 2896.67896,227.762714 2893.9216,226.96261 L2893.9216,226.96261 L2877.41879,222.097401 C2874.15644,221.066235 2870.81415,220.165526 2867.45105,219.296074 L2860.7146,217.569456 C2855.07596,216.180934 2849.55609,214.562786 2843.82968,213.328544 C2832.40783,210.831357 2821.06344,208.136835 2809.40407,206.156308 C2763.13319,197.308516 2715.07572,193.114247 2667.16282,192.493538 C2623.59767,192.350022 2580.13062,195.557615 2537.94414,202.145022 C2537.91832,202.152198 2537.88734,202.155786 2537.86152,202.159374 C2489.92798,209.851857 2439.11831,222.743225 2383.40324,234.856016 C2355.49924,240.880121 2326.23204,246.696126 2295.15243,251.148725 C2264.11413,255.59056 2231.13432,258.629522 2196.89976,258.758687 L2196.89976,258.758687 L2169.57408,258.198973 C2169.53793,258.198973 2169.49146,258.198973 2169.45015,258.195385 C2134.65792,256.67411 2100.89841,251.902187 2069.32826,245.189203 C2037.71164,238.472632 2008.17078,229.893934 1980.34939,220.594066 C1924.72726,201.936923 1875.56478,180.527852 1828.49355,161.641082 C1828.46257,161.626731 1828.43159,161.619555 1828.40577,161.608791 C1791.02659,146.665137 1753.83329,133.235582 1717.05309,123.741967 C1680.28837,113.936203 1644.21557,108.70144 1611.02922,108.561511 Z" id="path-5"></path>
        <path d="M943.05884,0.636489992 L949.039374,0.688920455 C979.457738,1.18726705 1010.49573,3.64673295 1041.34266,8.71624432 C1072.16378,13.7714148 1102.7732,21.4939943 1131.61152,32.027392 C1131.65283,32.041733 1131.68897,32.0560739 1131.73028,32.0704148 C1162.6082,43.4893636 1188.82345,57.045108 1212.19876,70.3104489 C1235.57923,83.6223977 1256.33146,96.7909375 1276.04066,108.557653 C1295.70855,120.335125 1314.34374,130.717943 1332.1889,138.519398 C1350.07021,146.363875 1366.77424,151.508676 1383.19427,154.061358 L1383.19427,154.061358 L1383.25623,154.072114 C1392.90171,155.405818 1402.86732,156.137205 1413.33896,156.165886 C1436.62133,155.74283 1462.58873,151.781153 1489.4804,144.119523 C1516.35142,136.723199 1543.82141,126.146778 1571.22943,114.147023 L1571.22943,114.147023 L1571.31205,114.11117 C1606.01098,98.8416875 1642.34675,80.8761136 1683.7118,63.8391136 C1704.40723,55.342125 1726.45035,47.0889318 1750.25939,39.8431875 C1774.04262,32.6046136 1799.67439,26.3985852 1826.73646,22.2397216 C1826.77777,22.2325511 1826.81391,22.2253807 1826.86038,22.2182102 C1858.23917,17.3889091 1890.0775,15.5496875 1920.92444,16.0516193 C1944.35654,16.5392102 1967.27746,18.2027557 1989.57359,20.7339261 C2011.76128,23.4049205 2033.26739,26.9291989 2054.21584,30.9876761 C2075.0352,35.1537102 2095.24526,39.8682841 2114.98028,44.9091136 C2134.59654,50.0359886 2153.73775,55.467608 2172.46588,61.1 C2172.49686,61.1107557 2172.533,61.1179261 2172.56398,61.1250966 C2221.664,75.9966193 2267.30962,91.4955568 2311.67985,104.205188 C2355.98295,116.954256 2398.93837,126.853068 2440.72683,131.237801 C2440.75781,131.241386 2440.78363,131.244972 2440.81461,131.248557 C2460.1572,133.295722 2480.54282,134.321097 2501.88369,134.650938 C2528.74439,135.030972 2557.00956,134.392801 2586.58627,133.586125 C2616.27657,132.786619 2647.31972,131.883142 2679.75186,132.026551 C2686.2889,132.116182 2692.82076,132.205813 2699.35779,132.291858 C2706.00326,132.499801 2712.64356,132.700574 2719.28903,132.904932 C2719.32517,132.908517 2719.36648,132.908517 2719.40779,132.908517 C2774.78666,135.296278 2830.58378,142.957909 2885.31205,160.141903 C2912.54968,168.796642 2939.46717,180.057841 2964.01976,194.846903 C2970.12306,198.557614 2975.9785,202.626847 2981.85977,206.574182 C2987.53449,210.758142 2992.96136,215.200239 2998.38823,219.574216 C2999.73075,220.682051 3000.92352,221.904614 3002.18859,223.069813 L3002.18859,223.069813 L3006.17484,226.877324 C3009.65506,230.362165 3013.61548,233.800398 3016.3315,237.364114 C3022.3212,244.459278 3028.30573,251.558028 3034.29543,258.656778 L3034.29543,258.656778 L3034.3987,258.778676 C3034.68786,264.99546 3035.04936,271.194318 3035.04936,277.464881 L3035.04936,277.464881 L3035.04936,628.885273 L10.6656303,628.885273 L10.6656303,628.83508 C7.23188187,449.760148 3.80329695,270.685216 0.369548497,91.6031136 L0.369548497,91.6031136 L0.239814767,84.7893892 L0.239814767,84.7893892 L0.10620839,77.9756648 L0.10620839,77.9756648 L88.4439054,111.232233 C103.351021,116.757068 118.970704,123.113676 132.333923,126.842313 C139.268546,129.000619 146.203169,131.158926 153.137792,133.317233 C156.592194,134.342608 160.108559,135.593852 163.506163,136.436381 L163.506163,136.436381 L173.554395,138.39033 C175.232543,138.72017 176.905527,139.046426 178.578511,139.372682 L178.578511,139.372682 L183.318633,140.046705 C185.766147,140.398057 188.218825,140.745824 190.666339,141.097176 C193.22745,141.502307 195.809216,141.882341 198.504579,142.083114 C203.853998,142.538438 209.074328,143.255483 214.516691,143.578153 C219.984871,143.847045 225.401415,144.252176 230.90574,144.47446 C236.47719,144.585602 242.043477,144.689574 247.614928,144.793545 C296.683967,144.797131 348.551641,137.705551 398.632734,125.902983 C398.658551,125.899398 398.689532,125.892227 398.71535,125.885057 C449.483192,113.928324 500.664116,97.4219375 554.00856,79.8973466 C607.373658,62.4121932 663.165616,43.8084489 723.940382,28.6895455 C723.971363,28.682375 724.007508,28.6716193 724.043653,28.6608636 C759.088541,20.0132955 795.284897,12.9145455 832.787626,7.95617614 C870.269701,3.01573295 909.114949,0.212085227 949.039374,0.688920455 M945.899947,108.220642 C891.197494,107.600398 832.694683,115.997 776.210811,129.936364 C776.17983,129.943534 776.148849,129.950705 776.123031,129.957875 C725.251919,142.570705 673.916089,159.492977 620.194707,177.143051 C566.468162,194.746517 510.07207,213.185341 448.553756,227.719852 C448.517611,227.730608 448.481467,227.737778 448.445322,227.748534 C385.305659,242.537597 318.303674,252.253563 247.527148,252.350364 C239.384258,252.199784 231.236206,252.049205 223.093316,251.89504 C214.909119,251.57954 206.662959,251.020244 198.452944,250.554165 C190.232602,250.034307 181.929643,249.034028 173.683483,248.252449 C169.557822,247.886756 165.421833,247.316705 161.280681,246.703631 C160.47517,246.585318 159.664495,246.470591 158.858985,246.352278 L158.858985,246.352278 L158.554336,246.2985 C158.451066,246.276989 158.352958,246.259063 158.254851,246.241136 L158.254851,246.241136 L160.890834,383.784795 L160.890834,383.784795 L163.526817,521.328455 L2880.14336,521.328455 L2880.14336,289.389347 L2879.7051,288.960464 L2879.7051,288.960464 L2879.08483,288.349631 C2878.56332,287.86921 2878.15024,287.342182 2877.56676,286.879687 C2875.10375,285.079903 2872.89892,283.168977 2870.47206,281.315415 C2867.69408,279.608847 2865.22075,277.758869 2862.3963,276.023619 C2850.9849,269.147153 2836.87813,263.02717 2820.88151,257.954074 C2788.84696,247.768443 2749.82615,241.87433 2710.38193,240.282489 C2710.35095,240.282489 2710.31997,240.282489 2710.28899,240.278903 L2710.28899,240.278903 L2694.54022,239.794898 C2689.17531,239.726778 2683.80524,239.651489 2678.44033,239.579784 C2651.19237,239.454301 2622.58641,240.239466 2592.65858,241.060483 C2562.61199,241.867159 2531.20739,242.641568 2498.39831,242.179074 C2472.25019,241.770358 2445.14165,240.504773 2417.51159,237.582812 L2417.51159,237.582812 L2417.38767,237.568472 C2357.65593,231.244131 2302.78825,218.028983 2252.49545,203.605614 C2202.10455,189.114125 2155.62244,173.292517 2110.73069,159.743943 C2110.69971,159.736773 2110.67389,159.726017 2110.64291,159.718847 C2093.97503,154.710284 2077.40526,150.017222 2060.92327,145.704193 C2044.46709,141.505892 2028.08837,137.705551 2011.85423,134.44658 C1995.6459,131.323847 1979.57699,128.710216 1963.7611,126.788534 C1947.98651,125.021017 1932.48558,123.934693 1917.36676,123.579756 C1897.52848,123.26067 1878.48537,124.450966 1860.34072,127.233102 L1860.34072,127.233102 L1860.26843,127.247443 C1828.94645,132.01221 1796.47817,142.438051 1762.57958,156.413267 C1728.60871,170.327534 1693.52251,187.579648 1654.37778,204.896295 C1654.3468,204.910636 1654.31065,204.921392 1654.27967,204.935733 C1621.41896,219.301739 1586.4257,233.058256 1547.0073,243.982443 C1507.96068,254.98192 1463.53365,263.005659 1415.44568,263.711949 C1393.60395,263.80158 1371.32847,262.285028 1349.34732,259.022472 C1349.30085,259.015301 1349.25437,259.008131 1349.2079,258.997375 C1311.89622,253.225159 1278.04927,242.03208 1249.59305,229.508881 C1220.96127,216.928318 1196.89405,203.139534 1174.9542,190.053455 C1153.0505,176.942278 1133.20189,164.397568 1114.08133,153.5415 C1095.00208,142.671091 1076.69736,133.546687 1059.01743,127.0395 L1059.01743,127.0395 L1058.94514,127.014403" id="path-7"></path>
    </defs>
    <g id="Screens" stroke="none" stroke-width="1" fill="none" fill-rule="evenodd">
        <g id="Beach---Amenities" transform="translate(1025.000000, -323.000000)">
            <g id="Group-21" transform="translate(-1024.012195, 323.000000)">
                <g id="Group-3" transform="translate(52.012195, 0.000000)">
                    <mask id="mask-2" fill="white">
                        <use xlink:href="#path-1"></use>
                    </mask>
                    <g id="Clip-2"></g>
                    <path d="M3031.43003,360.527988 L3036.32994,359.510104 C3037.96669,359.169615 3039.59311,358.829125 3041.22985,358.488636 C3042.86144,358.151731 3044.49818,357.807657 3046.12976,357.467168 C3047.76135,357.130263 3049.39293,356.789774 3051.02451,356.449284 L3055.92442,355.431401 C3057.56117,355.090911 3059.19275,354.750422 3060.82433,354.413517 L3070.62416,352.374165 C3072.25574,352.03726 3073.88732,351.696771 3075.5189,351.356281 L3080.42398,350.338398 C3083.68198,349.657419 3086.95031,348.980024 3090.21864,348.299046 C3096.75013,346.940673 3103.28162,345.5823 3109.81312,344.223927 C3116.21553,342.890642 3122.62311,341.557358 3129.03068,340.227657 C3132.23189,339.561015 3135.43309,338.894373 3138.63946,338.227731 C3140.24007,337.89441 3141.84067,337.561089 3143.44127,337.227768 C3145.04188,336.898031 3146.64764,336.561125 3148.24308,336.231388 C3151.44429,335.561162 3154.65066,334.898104 3157.85703,334.231462 C3159.45247,333.898141 3161.05823,333.56482 3162.65367,333.231498 C3164.25944,332.898177 3165.86004,332.564856 3167.46065,332.231535 C3169.06641,331.901798 3170.66185,331.564893 3172.26762,331.231572 C3173.86306,330.901835 3175.46883,330.56493 3177.06943,330.235193 C3178.67003,329.901872 3180.27064,329.56855 3181.87124,329.235229 C3181.87124,329.235229 3183.47701,328.901908 3186.67821,328.235266 C3178.19501,319.042055 3170.35206,309.554948 3160.58838,300.945945 C3158.2546,298.745309 3155.92081,296.544673 3153.58187,294.344037 C3151.36684,292.078887 3148.69228,290.039535 3145.92995,288.143547 C3143.47225,286.40526 3141.01972,284.670557 3138.56202,282.932269 C3136.40378,281.466373 3134.28686,279.932379 3132.05634,278.548917 C3114.0986,267.456135 3094.34406,258.710936 3074.05254,251.807963 C3053.69907,245.062691 3032.84476,240.47863 3011.9543,237.170508 C2991.05353,234.077431 2970.1166,232.611535 2949.24164,232.263878 C2920.78188,232.03808 2892.44088,234.32115 2864.41484,239.349639 C2864.37353,239.356807 2864.32706,239.36756 2864.28575,239.374728 C2812.17321,248.782985 2766.32884,265.255498 2726.23631,282.788905 C2686.01471,300.415498 2650.64654,319.310862 2616.97191,336.460771 C2616.9461,336.475107 2616.91512,336.489443 2616.8893,336.50378 C2583.75165,353.42789 2551.55371,368.678226 2519.65008,379.971719 C2487.77226,391.301052 2456.69474,398.358141 2427.19717,399.802532 L2427.12489,399.806116 C2422.79293,399.87063 2418.46614,399.985321 2414.14451,400.139437 C2380.70223,400.268465 2341.37903,393.992709 2296.85644,386.053933 C2274.55126,382.140098 2250.84685,377.896526 2225.31465,374.376942 C2199.81342,370.878862 2172.3605,368.094018 2143.19338,367.620917 C2143.14691,367.617333 2143.1056,367.617333 2143.0643,367.617333 C2105.87351,367.11556 2070.67056,370.43085 2038.19897,375.014911 C2005.67059,379.624061 1975.57925,385.480477 1947.20726,390.910385 C1918.8611,396.358214 1892.17749,401.422544 1867.079,404.866862 C1841.99084,408.332685 1818.6272,410.124734 1797.19977,409.569199 C1791.65962,409.192869 1786.13495,408.873884 1780.57931,408.630165 L1780.50703,408.626581 C1748.2936,405.852489 1716.29702,396.874324 1683.51047,382.785235 C1650.74458,368.764245 1617.89091,350.058838 1583.66382,329.751339 C1549.33346,309.454593 1513.57805,287.387303 1472.40641,266.545774 C1451.8051,256.15189 1429.79422,246.084159 1405.90909,237.048648 C1382.04978,228.020306 1356.24909,220.049272 1328.82198,214.088917 C1328.78067,214.081749 1328.73936,214.074581 1328.69806,214.063829 C1309.96584,210.106985 1290.8567,206.981651 1271.57202,204.838361 C1252.27184,202.83485 1232.90454,201.727364 1213.67149,201.480061 C1170.79081,201.214838 1128.95311,205.157346 1089.65572,212.045982 C1069.9683,215.465211 1050.80237,219.529578 1032.13211,224.074214 C1013.52897,228.676196 995.411175,233.740526 977.721928,239.145346 C907.088859,260.911572 843.524261,287.93567 783.171195,315.651498 C783.140216,315.665835 783.109236,315.680171 783.078257,315.694508 C720.344939,344.571584 659.594304,372.39852 597.872981,393.874434 C536.327208,415.18548 473.872705,429.758422 414.144391,431.206398 C405.831581,431.080954 397.534261,431.009272 389.216287,431.009272 C381.027395,430.353382 372.843666,429.776343 364.634121,429.270985 C364.608304,429.270985 364.582488,429.270985 364.556672,429.270985 C360.358961,428.704697 356.166414,428.145578 351.973866,427.586459 C349.877592,427.288979 347.755502,427.116942 345.674718,426.737028 C343.599097,426.339193 341.523476,425.937774 339.447855,425.536355 C335.312103,424.686924 331.09374,424.102716 326.99413,423.113505 C322.899684,422.102789 318.805238,421.084905 314.715955,420.07419 C298.549863,415.594067 282.492199,410.447303 267.694365,403.608844 C265.809783,402.806006 263.920039,401.996 262.035458,401.189578 C260.166366,400.361651 258.441846,399.379609 256.62955,398.487168 C254.832744,397.580391 253.030774,396.670031 251.233968,395.763254 C250.335565,395.311657 249.431999,394.860061 248.528432,394.408465 C247.640356,393.967621 246.747116,393.526777 245.853876,393.085933 C245.311736,392.763364 244.764433,392.437211 244.21713,392.114642 C243.122524,391.469505 242.033082,390.820783 240.938475,390.172061 L215.488885,372.868037 C213.366795,371.427229 211.244705,369.982838 209.127778,368.542031 C208.064152,367.821627 207.005688,367.101223 205.942062,366.38082 C205.420575,365.972232 204.873272,365.764355 204.367275,365.194483 C203.856114,364.646116 203.344954,364.097749 202.833794,363.552966 C198.754837,359.173199 194.675881,354.793431 190.591761,350.417248 C186.512805,346.03748 182.433848,341.661297 178.354892,337.281529 C176.31025,335.095229 174.270772,332.905346 172.231294,330.715462 C171.720134,330.170679 171.208973,329.622312 170.702976,329.073945 C170.165999,328.375046 169.763267,328.443144 169.024924,326.61167 C167.692809,323.758728 166.360695,320.905786 165.02858,318.052844 C154.366497,295.229309 143.699252,272.40219 133.037169,249.578654 C130.37294,243.872771 127.70871,238.166887 125.039317,232.457419 C119.932876,220.755339 114.826436,209.056844 109.719995,197.35118 L76.7165909,121.325297 C51.3651021,62.9403425 26.0187765,4.55538838 0.672450911,-53.8259817 L0.672450911,141.109517 L0.672450911,141.102349 L0.672450911,1171.79571 L0.672450911,1171.93907 L0.672450911,1172 L3142.5532,1172 L3142.70809,1172 L3142.70809,1171.96416 L3166.35055,733.231156 C3169.83057,668.731731 3173.30543,604.232306 3176.78029,539.732881 C3178.5203,507.483168 3180.25515,475.233456 3181.98999,442.983743 C3182.86258,426.858887 3183.73,410.734031 3184.59743,394.609174 C3185.03114,386.544954 3185.47001,378.484318 3185.90373,370.423682 C3186.23417,364.312795 3186.55946,358.209076 3186.89507,352.105358 C3186.99317,350.094679 3187.1016,348.076832 3187.1997,346.062569 C3187.1429,344.080563 3187.08611,342.102141 3187.02931,340.120135 C3186.91056,336.159706 3186.7918,332.199278 3186.67821,328.235266 C3183.47701,328.901908 3181.87124,329.235229 3181.87124,329.235229 C3180.27064,329.56855 3178.67003,329.901872 3177.06943,330.235193 C3175.46883,330.56493 3173.86306,330.901835 3172.26762,331.231572 C3170.66185,331.564893 3169.06641,331.901798 3167.46065,332.231535 C3165.86004,332.564856 3164.25944,332.898177 3162.65367,333.231498 C3161.05823,333.56482 3159.45247,333.898141 3157.85703,334.231462 C3154.65066,334.898104 3151.44429,335.561162 3148.24308,336.231388 C3146.64764,336.561125 3145.04188,336.898031 3143.44127,337.227768 C3141.84067,337.561089 3140.24007,337.89441 3138.63946,338.227731 C3135.43309,338.894373 3132.23189,339.561015 3129.03068,340.227657 C3122.62311,341.557358 3116.21553,342.890642 3109.81312,344.223927 C3103.28162,345.5823 3096.75013,346.940673 3090.21864,348.299046 C3086.95031,348.980024 3083.68198,349.657419 3080.42398,350.338398 L3075.5189,351.356281 C3073.88732,351.696771 3072.25574,352.03726 3070.62416,352.374165 L3060.82433,354.413517 C3059.19275,354.750422 3057.56117,355.090911 3055.92442,355.431401 L3051.02451,356.449284 C3049.39293,356.789774 3047.76135,357.130263 3046.12976,357.467168 C3044.49818,357.807657 3042.86144,358.151731 3041.22985,358.488636 C3039.59311,358.829125 3037.96669,359.169615 3036.32994,359.510104 L3031.43003,360.527988 C3018.78527,595.178875 3006.14566,829.826177 2993.5009,1064.47706 L155.569531,1064.47706 L155.569531,480.373052 L184.664366,494.383291 C208.007356,504.985052 233.44662,513.443523 259.655206,520.575878 C266.310617,522.210226 272.966028,523.848159 279.626603,525.482508 C286.318157,527.052343 293.262709,528.192086 300.088507,529.52537 C303.516896,530.163339 306.945285,530.797725 310.373673,531.43211 C313.817552,532.030654 317.359532,532.421321 320.855042,532.912343 C327.866717,533.819119 334.883555,534.725896 341.895229,535.632673 C341.941698,535.636257 341.983004,535.639841 342.02431,535.643425 C354.854952,536.625468 367.711409,537.532245 380.567867,538.363755 C393.398508,538.539376 406.254966,538.650483 419.085608,538.671988 C464.723451,537.564502 508.879445,531.629235 550.221476,522.905541 C591.635792,514.167511 630.427184,502.719902 667.158445,490.042948 C740.419601,464.477578 805.70872,434.209872 868.710526,405.289786 C868.736342,405.279034 868.767322,405.264697 868.793138,405.250361 C925.485469,379.165297 982.415309,355.298789 1040.321,337.496575 C1098.05114,319.647768 1156.83975,308.551401 1211.60619,308.992245 C1223.8379,309.178618 1235.8734,309.881101 1247.7127,311.07819 C1259.50553,312.411474 1271.06602,314.321798 1282.45612,316.680135 C1282.48193,316.687303 1282.50775,316.694471 1282.53357,316.698055 C1315.36142,323.787401 1348.21509,336.758251 1381.29078,353.499572 C1414.4181,370.208636 1447.56092,390.448037 1483.07882,411.518948 C1518.68449,432.54685 1556.7427,454.743168 1602.18434,474.298006 C1624.89226,484.025248 1649.54154,493.010581 1676.2458,500.20745 C1702.89843,507.41507 1731.65249,512.74104 1761.0881,515.300086 C1761.1294,515.300086 1761.17587,515.30367 1761.22234,515.307254 C1771.19771,515.941639 1781.1989,516.515095 1791.1846,517.0097 C1828.77812,517.980991 1864.35798,514.844905 1897.05159,510.361199 C1929.81232,505.841651 1960.02242,499.992404 1988.49766,494.540991 C2016.95226,489.071657 2043.71847,483.953566 2068.98219,480.390972 C2094.24074,476.806875 2117.87803,474.824869 2139.71852,475.11518 C2139.74434,475.118765 2139.77015,475.118765 2139.79597,475.118765 C2174.06953,475.588281 2213.82128,482.26904 2258.81372,490.283083 C2281.36157,494.236343 2305.33964,498.454826 2331.23327,501.831046 C2357.08559,505.185761 2385.00837,507.683878 2414.59371,507.662373 C2422.50896,507.454495 2430.41903,507.250202 2438.32911,507.049492 L2438.46852,507.03874 C2466.37065,505.637358 2493.46214,501.730691 2518.80847,496.207596 C2544.1961,490.680917 2567.90052,483.591572 2590.06629,475.738813 C2634.41849,459.975951 2672.86911,441.342226 2708.62452,423.145761 C2708.6555,423.131425 2708.68131,423.113505 2708.70713,423.099168 C2743.95654,405.085492 2776.60368,387.824477 2808.80162,373.764061 C2840.94793,359.671388 2872.3972,348.972856 2903.29917,343.431841 L2903.37661,343.417505 C2917.32768,340.901468 2932.43014,339.650618 2947.31575,339.779645 C2958.19985,340.0377 2968.97037,340.768856 2979.16776,342.256257 C2989.20509,343.922862 2998.78805,346.015976 3007.13701,348.779315 C3015.31041,351.650177 3022.48214,354.87945 3028.35791,358.420538 C3029.08592,358.864966 3029.64871,359.381076 3030.31994,359.843425 C3030.62457,360.058471 3030.9292,360.273517 3031.22866,360.488563 C3031.26481,360.495731 3031.30611,360.502899 3031.34226,360.510067 C3031.37324,360.513651 3031.39905,360.52082 3031.43003,360.527988" id="Fill-1" mask="url(#mask-2)"></path>
                </g>
                <path d="M3031.0122,424.008604 C2989.60217,372.00132 2887.93545,356.22101 2805.09992,371.177002 C2722.26439,386.132994 2653.05152,424.399259 2584.08644,459.594045 C2515.12652,494.785246 2439.46108,528.904835 2354.09614,533.209207 C2255.68668,538.16945 2161.46365,502.630601 2062.81157,501.146829 C1937.08967,499.26165 1817.06151,552.688195 1692.29975,541.746272 C1509.98105,525.750923 1402.55348,383.233545 1227.16226,345.153648 C1062.82816,309.471439 891.024575,374.212642 747.555517,440.305008 C604.081298,506.393791 445.296417,579.73657 274.979499,562.225193 C145.778368,548.942925 32.6828555,478.31681 0.012195122,390.523382 L0.012195122,1198 L2989.3131,1198 L3031.0122,424.008604 Z" id="Fill-4" fill="#F0B774" opacity="0.199999988"></path>
                <g id="Group-8" transform="translate(18.012195, 281.000000)">
                    <mask id="mask-4" fill="white">
                        <use xlink:href="#path-3"></use>
                    </mask>
                    <g id="Clip-7"></g>
                    <path d="M0,219.086076 C3.26325705,219.448312 4.89488557,219.631224 4.89488557,219.631224 C6.53167748,219.814135 8.16330601,219.99346 9.79493453,220.176371 C11.4265631,220.359283 13.0581916,220.542194 14.6949835,220.721519 C16.326612,220.900844 17.9582405,221.083755 19.5898691,221.266667 C21.2214976,221.449578 22.8582895,221.632489 24.489918,221.811814 C26.1215465,221.994726 27.7531751,222.177637 29.3848036,222.360549 C32.653224,222.722785 35.9164811,223.085021 39.1797381,223.447257 C40.81653,223.630169 42.4481585,223.81308 44.0797871,223.995992 C45.7114156,224.175316 47.3430441,224.358228 48.9746726,224.541139 C52.2430931,224.906962 55.5063501,225.265612 58.7747706,225.631435 C65.3012847,226.359494 71.8329621,227.087553 78.3646396,227.812025 C84.8963171,228.540084 91.4279946,229.268143 97.9545087,229.996203 C101.222929,230.358439 104.486186,230.724262 107.754607,231.086498 C109.386235,231.269409 111.017864,231.452321 112.649492,231.635232 C114.281121,231.814557 115.912749,231.997468 117.549541,232.176793 C120.812798,232.542616 124.076055,232.904852 127.344476,233.270675 C128.976104,233.45 130.607733,233.632911 132.239361,233.815823 C133.876153,233.998734 135.507782,234.181646 137.13941,234.357384 C138.771039,234.540295 140.402667,234.723207 142.039459,234.906118 C143.671088,235.085443 145.302716,235.268354 146.934345,235.451266 C148.565973,235.634177 150.202765,235.817089 151.834394,235.996414 C151.834394,235.996414 153.466022,236.179325 156.729279,236.541561 C156.672482,236.663502 156.615685,236.781857 156.553724,236.903797 C156.476274,237.061603 156.398823,237.219409 156.321372,237.377215 C156.734443,236.649156 157.147513,235.924684 157.55542,235.200211 C159.584629,231.742827 162.543247,228.511392 164.877095,225.118565 C167.035389,221.661181 170.598122,218.637764 173.401838,215.363291 C174.935362,213.778059 176.205554,212.081646 177.90947,210.557384 C179.634039,209.033122 181.353445,207.512447 183.072851,205.988186 C196.704178,193.761814 213.242489,182.704641 231.779028,173.354641 C269.23936,154.981013 314.243392,143.85211 358.00305,142.528692 C364.209434,142.647046 370.400329,142.686498 376.606713,142.654219 C382.689176,143.177848 388.766476,143.62616 394.874757,143.98481 L394.952207,143.991983 C432.09241,147.868987 472.304824,159.342194 516.420755,173.87827 C560.60381,188.217089 608.969203,205.755063 666.556396,217.830802 C666.597703,217.837975 666.633847,217.845148 666.675154,217.855907 C719.935433,228.941772 775.333352,233.503797 828.882781,233.008861 C870.060747,232.417089 910.273162,229.318354 949.334142,224.60211 C988.245384,219.652743 1025.84513,213.071519 1062.60324,205.780169 C1099.16514,198.31308 1134.73051,190.071308 1169.68661,181.585654 C1204.46714,173.035443 1238.61775,164.327426 1272.30365,155.802321 C1272.33463,155.795148 1272.36561,155.784388 1272.39659,155.777215 C1327.5415,141.872363 1382.53668,129.649578 1437.27369,120.884177 C1491.9384,112.165401 1546.41208,107.008017 1598.40733,107.786287 C1658.40066,108.675738 1714.17034,118.079536 1761.49789,137.564979 C1761.52371,137.575738 1761.54436,137.582911 1761.57018,137.593671 C1780.41652,145.297468 1800.07868,155.447257 1820.73221,166.837975 C1841.43736,178.228692 1863.13906,190.874684 1887.45858,203.62827 C1911.80393,216.324473 1938.90652,229.336287 1971.33255,240.067089 C1979.34096,242.767722 1988.15485,245.088186 1996.58665,247.512658 C2005.33342,249.757806 2014.64816,251.601266 2023.70473,253.534388 C2033.10208,255.13038 2042.78342,256.392827 2052.35117,257.673207 C2062.1461,258.476582 2072.03398,259.057595 2081.88571,259.581224 C2081.93218,259.58481 2081.97865,259.588397 2082.03028,259.591983 C2108.8334,260.237553 2134.01521,257.809494 2156.37781,254.384388 C2178.81271,250.94135 2198.74852,246.55865 2216.87715,242.509494 C2234.9903,238.438819 2251.34789,234.669409 2266.11516,231.940084 C2280.89276,229.182068 2293.9716,227.489241 2305.32071,227.026582 L2305.38784,227.019409 C2309.01253,227.030169 2312.62174,226.990717 2316.24643,226.883122 C2343.91699,227.22384 2376.14682,234.09557 2411.79997,245.084599 C2447.55638,255.922996 2485.95129,270.473418 2530.73846,283.686076 L2530.84689,283.718354 C2572.62897,295.553797 2615.81549,304.49135 2659.73005,310.563291 C2703.77369,316.029114 2748.30786,318.686709 2792.82137,318.618565 C2865.434,317.764979 2937.63873,309.204008 3006.59052,293.190295 C3015.265,291.325316 3023.64001,288.796835 3032.17508,286.612658 C3040.62237,284.252743 3049.25554,282.251477 3057.52728,279.568776 C3065.4634,277.018776 3073.40468,274.46519 3081.3408,271.911603 C3081.0723,271.994093 3080.8038,272.072996 3080.53014,272.151899 L3080.53014,737.474895 L200.963968,737.474895 C186.21735,570.498312 171.475897,403.518143 156.729279,236.541561 C153.466022,236.179325 151.834394,235.996414 151.834394,235.996414 C150.202765,235.817089 148.565973,235.634177 146.934345,235.451266 C145.302716,235.268354 143.671088,235.085443 142.039459,234.906118 C140.402667,234.723207 138.771039,234.540295 137.13941,234.357384 C135.507782,234.181646 133.876153,233.998734 132.239361,233.815823 C130.607733,233.632911 128.976104,233.45 127.344476,233.270675 C124.076055,232.904852 120.812798,232.542616 117.549541,232.176793 C115.912749,231.997468 114.281121,231.814557 112.649492,231.635232 C111.017864,231.452321 109.386235,231.269409 107.754607,231.086498 C104.486186,230.724262 101.222929,230.358439 97.9545087,229.996203 C91.4279946,229.268143 84.8963171,228.540084 78.3646396,227.812025 C71.8329621,227.087553 65.3012847,226.359494 58.7747706,225.631435 C55.5063501,225.265612 52.2430931,224.906962 48.9746726,224.541139 C47.3430441,224.358228 45.7114156,224.175316 44.0797871,223.995992 C42.4481585,223.81308 40.81653,223.630169 39.1797381,223.447257 C35.9164811,223.085021 32.653224,222.722785 29.3848036,222.360549 C27.7531751,222.177637 26.1215465,221.994726 24.489918,221.811814 C22.8582895,221.632489 21.2214976,221.449578 19.5898691,221.266667 C17.9582405,221.083755 16.326612,220.900844 14.6949835,220.721519 C13.0581916,220.542194 11.4265631,220.359283 9.79493453,220.176371 C8.16330601,219.99346 6.53167748,219.814135 4.89488557,219.631224 C4.89488557,219.631224 3.26325705,219.448312 0,219.086076 C18.4229449,427.727004 36.8458897,636.375105 55.2688346,845.01962 L55.273998,845.069831 L55.4030825,845.069831 C1115.40914,845.069831 2175.42036,845.055485 3235.43159,845.048312 L3235.43159,844.904852 L3235.43159,78.814557 L3235.43159,78.685443 L3235.43159,68.0729958 C3206.48567,83.1183544 3177.55008,98.1708861 3148.60417,113.219831 C3141.06563,117.139873 3133.52709,121.063502 3125.98855,124.983544 C3122.21412,126.941772 3118.44485,128.903586 3114.67559,130.865401 C3110.92697,132.784177 3107.0596,134.939662 3103.51752,136.442405 C3089.07554,143.027215 3074.63356,149.608439 3060.18642,156.193249 C3052.96801,159.485654 3045.74961,162.774473 3038.52604,166.066878 C3034.90651,167.781224 3031.36443,168.903797 3027.7862,170.356329 C3024.43001,171.751477 3020.21669,173.046203 3016.10147,174.348101 C3009.42522,176.5 3002.7438,178.651899 2996.06755,180.807384 C2989.76306,182.901899 2983.02485,184.36519 2976.53964,186.19789 C2969.95117,187.862025 2963.56407,189.89557 2956.82585,191.29789 C2903.53459,203.635443 2847.28988,210.320675 2791.02451,211.027215 C2756.55378,211.020042 2722.23278,208.950633 2688.50557,204.844093 C2654.97458,200.131435 2622.3007,193.338608 2590.88669,184.533755 C2590.86087,184.526582 2590.82989,184.519409 2590.80407,184.50865 C2555.67242,174.269198 2517.74739,159.969831 2474.09616,146.574262 C2452.21375,139.903376 2428.72037,133.462025 2402.95509,128.401477 C2377.26727,123.355274 2349.10102,119.775949 2319.60779,119.313291 C2311.79043,119.356329 2303.96791,119.453165 2296.16088,119.618143 C2296.1144,119.618143 2296.06793,119.62173 2296.02146,119.625316 C2270.41109,120.704852 2247.0313,124.115612 2226.09895,127.992616 C2205.13046,131.901899 2186.39255,136.298945 2169.30692,140.114979 C2152.24195,143.948945 2136.81376,147.216245 2123.10498,149.303586 C2109.38072,151.408861 2097.57723,152.312658 2087.36406,152.058017 L2087.3021,152.050844 C2071.45052,151.663502 2055.50599,148.711814 2037.61488,142.822785 C2019.8167,136.973207 2000.6967,128.197046 1980.70925,117.710127 C1960.665,107.23038 1939.76364,95.0972574 1916.94149,82.5158228 C1894.08837,69.9594937 1869.25766,56.8257384 1840.22913,44.9042194 C1840.18783,44.8898734 1840.15168,44.8755274 1840.11554,44.8611814 C1821.74939,37.4729958 1802.71717,30.8881857 1783.17377,25.257384 C1763.55808,19.7772152 1743.55514,15.1864979 1723.36116,11.5031646 C1703.14652,7.97046414 1682.82345,5.29852321 1662.53136,3.38691983 C1642.25476,1.62594937 1622.07111,0.614556962 1602.04235,0.220042194 C1532.62069,-0.784177215 1466.05437,5.94409283 1402.58093,16.0221519 C1339.08166,26.2006329 1278.37062,39.8221519 1219.5184,54.6451477 C1219.48226,54.6559072 1219.45128,54.6630802 1219.4203,54.6702532 C1185.23355,63.3208861 1151.57863,71.899789 1118.26449,80.0949367 C1085.03297,88.1609705 1052.04413,95.7822785 1019.30829,102.471097 C986.613756,108.951899 954.099943,114.600633 921.93724,118.7 C889.826171,122.555485 858.092029,124.918987 827.0188,125.421097 C786.708281,125.772574 747.802202,122.397679 711.01311,114.762025 C710.987293,114.758439 710.961476,114.751266 710.930496,114.744093 C671.533896,106.649367 629.503971,92.0343882 582.413933,76.5335443 C558.812116,68.8225738 533.77488,60.921519 506.589677,53.9601266 C479.445781,47.0130802 449.983526,41.0236287 418.605657,37.6594937 C418.559187,37.6559072 418.51788,37.6523207 418.476573,37.6487342 C407.46308,36.7592827 396.423771,35.9559072 385.389625,35.2314346 C374.381296,35.0736287 363.36264,35.0018987 352.354311,35.0054852 C275.394111,37.3116034 202.652393,55.9075949 141.662532,85.8369198 C111.343157,101.05443 83.8997845,119.230802 60.6180977,140.097046 C57.7214408,142.71519 54.8299472,145.329747 51.9332902,147.951477 C49.0779403,150.591139 46.6304975,153.474684 43.9868462,156.236287 C38.9267324,161.892194 33.3244636,167.264768 29.1008176,173.329536 C24.7325969,179.308228 19.9254889,185.107595 16.1304035,191.305063 C10.7553235,200.565401 5.37508005,209.829325 0,219.086076" id="Fill-6" mask="url(#mask-4)"></path>
                </g>
                <path d="M168.012195,508.826936 C213.66284,418.026683 359.41658,357.233888 496.301406,371.902449 C596.16187,382.602755 681.52646,427.257265 778.335976,447.349465 C961.821319,485.42248 1155.3371,431.695114 1335.3327,386.294988 C1515.33346,340.898446 1725.22937,304.80418 1890.20254,372.332612 C1985.98991,411.534805 2062.83662,484.196516 2173.96133,486.849188 C2247.92229,488.612856 2316.12724,457.41528 2390.0056,454.361123 C2482.32904,450.539841 2564.80272,490.25823 2650.0589,515.150333 C2844.58134,571.931857 3082.78757,548.54891 3247.0122,456.5442 L3247.0122,1072 L217.756583,1072 L168.012195,508.826936 Z" id="Fill-9" fill="#C9985F" opacity="0.199999988"></path>
                <g id="Group-13" transform="translate(53.012195, 392.000000)">
                    <mask id="mask-6" fill="white">
                        <use xlink:href="#path-5"></use>
                    </mask>
                    <g id="Clip-12"></g>
                    <path d="M2906.12315,230.991835 C2909.21614,229.588962 2910.76005,228.885731 2910.76005,228.885731 C2912.30396,228.178912 2913.85304,227.475681 2915.39695,226.776038 C2916.94602,226.06922 2918.48477,225.365989 2920.03385,224.662758 C2921.57776,223.963115 2923.12683,223.256297 2924.67075,222.553066 C2926.21982,221.853423 2927.75857,221.146604 2929.30764,220.443374 C2930.85156,219.740143 2932.40063,219.036912 2933.94454,218.333681 C2937.03237,216.92722 2940.12535,215.520758 2943.21834,214.110709 C2944.75709,213.411066 2946.30616,212.707835 2947.85007,212.004604 C2949.39915,211.297786 2950.94306,210.598143 2952.48697,209.894912 C2955.57996,208.488451 2958.67294,207.078401 2961.76077,205.675527 L2980.30836,197.23317 L2998.69072,188.866159 C3001.75272,187.474049 3004.81989,186.078352 3007.8819,184.682654 L3012.48265,182.590901 C3014.01107,181.894846 3015.53949,181.198791 3017.07308,180.499148 C3020.14025,179.107038 3023.20225,177.711341 3026.26942,176.315643 C3027.79784,175.619588 3029.33143,174.923533 3030.85985,174.22389 L3035.4606,172.132137 C3036.99418,171.436082 3038.5226,170.740027 3040.05102,170.040385 C3041.58461,169.34433 3043.11819,168.648275 3044.65178,167.95222 C3046.18536,167.252577 3047.71378,166.556522 3049.24737,165.860467 L3053.84296,163.768714 L3018.08514,150.263813 C3012.1212,148.014192 3006.16242,145.764571 3000.20881,143.514951 C2994.28618,141.261742 2988.38937,138.997769 2982.11045,136.984951 L2967.87445,132.202264 C2964.40452,131.075659 2961.00172,129.841418 2957.47499,128.804511 C2950.43703,126.719934 2943.3939,124.638945 2936.35077,122.554368 C2929.35412,120.390857 2922.15092,118.611253 2914.98903,116.75989 C2907.79615,114.962346 2900.70139,112.956703 2893.42074,111.356495 C2878.87492,108.123786 2864.37558,104.769088 2849.56642,102.196555 C2790.65509,90.9986813 2729.73513,85.5737582 2668.70157,84.8597637 C2613.21886,84.6337253 2557.57609,88.7060055 2503.12093,97.2667637 C2503.08479,97.2703516 2503.04348,97.2775275 2503.0125,97.2847033 C2442.18548,107.180165 2388.11243,121.17661 2337.36473,132.076687 C2286.7203,143.105929 2239.43736,151.024451 2196.27497,151.121324 C2190.63117,151.006511 2184.99254,150.891698 2179.34874,150.776885 C2179.32292,150.776885 2179.2971,150.776885 2179.26612,150.773297 C2136.98154,148.990104 2092.84839,138.825549 2047.52245,123.605626 C2002.0984,108.446698 1955.97211,88.5947802 1906.09705,68.4881209 C1906.06607,68.4737692 1906.03509,68.4630055 1906.00411,68.4486538 C1864.25137,51.789978 1820.24214,35.6264341 1771.36882,22.9395769 C1722.91892,10.1450824 1668.48442,1.03537363 1610.19272,0.924148352 C1583.77066,1.18247802 1556.94585,3.39263187 1530.57026,7.73400549 C1530.52379,7.74118132 1530.48248,7.74835714 1530.44117,7.75553297 C1492.01378,14.3680549 1457.34548,25.6592143 1427.12302,38.037511 C1396.78697,50.4660385 1370.3236,63.9709396 1345.69847,76.7116154 C1321.10948,89.4774066 1298.29161,101.590198 1276.20696,111.747577 C1254.1378,121.926484 1232.88966,130.092571 1212.25081,135.452912 L1212.17852,135.470852 C1185.3692,142.237654 1156.26724,145.552885 1125.38384,145.685637 C1090.46769,145.40578 1053.72879,141.491368 1016.57164,134.247374 C979.414494,127.27606 941.957857,117.183264 904.619983,105.784467 C904.589002,105.773703 904.563184,105.766527 904.532202,105.755764 C849.555526,88.7992912 793.050429,68.5598791 731.541819,50.3153462 C700.777187,41.2128132 668.685514,32.6233516 634.931167,25.508522 C601.212966,18.4008681 565.749472,12.7893736 529.067373,9.80064286 C529.031228,9.79705495 528.98992,9.79346703 528.948611,9.78987912 C516.075797,9.101 503.197819,8.40853297 490.325004,7.71606593 C393.497482,5.34804396 298.280998,22.3368077 215.038864,53.8853187 C173.37907,69.6900714 134.564411,89.2262527 99.9425822,112.160187 C95.6929527,115.087923 91.4433233,118.015659 87.1885303,120.943396 C82.9389009,123.871132 78.65829,126.777341 74.8062565,129.99211 C66.9885907,136.335538 58.7939833,142.438577 51.4152221,149.054687 C44.2223499,155.782022 36.8487523,162.416071 29.9450408,169.297687 C20.0516144,180.20494 10.1530243,191.112192 0.259597859,202.015857 C0.218289189,202.058912 0.187307687,202.101967 0.140835433,202.137846 L0.140835433,650.684264 L0.140835433,650.82778 L3104.42542,650.82778 L3104.54935,650.82778 C3104.54935,650.806253 3104.54935,650.788313 3104.54935,650.770374 C3095.72478,564.936753 3086.91055,479.10672 3078.09631,393.276687 C3074.67285,359.962923 3071.2494,326.652747 3067.82594,293.338984 C3066.1168,276.683896 3064.40765,260.02522 3062.69334,243.370132 L3059.62101,213.443357 C3058.05644,196.720099 3055.93937,180.247995 3053.84296,163.768714 L3049.24737,165.860467 C3047.71378,166.556522 3046.18536,167.252577 3044.65178,167.95222 C3043.11819,168.648275 3041.58461,169.34433 3040.05102,170.040385 C3038.5226,170.740027 3036.99418,171.436082 3035.4606,172.132137 L3030.85985,174.22389 C3029.33143,174.923533 3027.79784,175.619588 3026.26942,176.315643 C3023.20225,177.711341 3020.14025,179.107038 3017.07308,180.499148 C3015.53949,181.198791 3014.01107,181.894846 3012.48265,182.590901 L3007.8819,184.682654 C3004.81989,186.078352 3001.75272,187.474049 2998.69072,188.866159 L2980.30836,197.23317 L2961.76077,205.675527 C2958.67294,207.078401 2955.57996,208.488451 2952.48697,209.894912 C2950.94306,210.598143 2949.39915,211.297786 2947.85007,212.004604 C2946.30616,212.707835 2944.75709,213.411066 2943.21834,214.110709 C2940.12535,215.520758 2937.03237,216.92722 2933.94454,218.333681 C2932.40063,219.036912 2930.85156,219.740143 2929.30764,220.443374 C2927.75857,221.146604 2926.21982,221.853423 2924.67075,222.553066 C2923.12683,223.256297 2921.57776,223.963115 2920.03385,224.662758 C2918.48477,225.365989 2916.94602,226.06922 2915.39695,226.776038 C2913.85304,227.475681 2912.30396,228.178912 2910.76005,228.885731 C2910.76005,228.885731 2909.21614,229.588962 2906.12315,230.991835 C2916.81177,335.059225 2927.50555,439.123027 2938.18901,543.190418 L155.048348,543.190418 L155.048348,233.105115 C154.965731,233.209165 154.87795,233.309626 154.795332,233.410088 C154.738533,233.481846 154.681734,233.546429 154.630098,233.618187 C154.599116,233.650478 154.573298,233.682769 154.542317,233.718648 C154.568135,233.693533 154.325446,233.969802 154.743697,233.506962 C155.838376,232.279896 156.93822,231.056418 158.032899,229.83294 C162.829869,225.100484 168.01927,220.533071 172.909184,215.832907 C178.000478,211.226027 183.8818,207.006643 189.251927,202.528929 C191.880191,200.250604 194.952523,198.23061 197.97322,196.174736 C200.968098,194.111687 203.96814,192.045049 206.963019,189.978412 C231.44357,173.768225 259.285613,159.732313 289.26538,148.36222 C349.193933,125.586154 417.802471,113.620467 484.443683,115.278082 C493.268247,115.805505 502.087648,116.27911 510.92254,116.695308 C510.953522,116.698896 510.97934,116.702484 511.005157,116.706071 C563.054082,120.893165 616.321612,133.156648 670.833565,149.34172 C725.448791,165.47656 781.246477,185.414588 841.572626,204.104022 C841.608771,204.114786 841.639752,204.121962 841.675897,204.132725 C884.254809,217.128143 928.408614,229.147648 975.593442,238.04567 C1022.50976,247.133852 1072.69463,252.9965 1125.15665,253.323 C1171.78381,253.251242 1220.40411,248.099 1266.48393,236.27683 C1266.52524,236.266066 1266.56655,236.255302 1266.60786,236.240951 C1302.36051,226.926731 1333.78608,214.351099 1361.7882,201.463319 C1389.83678,188.532484 1414.76657,175.189038 1438.35898,162.96861 C1461.91009,150.741005 1484.14448,139.600538 1505.65597,130.81733 C1527.16746,122.005418 1547.73918,115.658401 1567.78937,112.214005 L1567.86166,112.203242 C1581.76203,110.025379 1596.11163,108.783962 1611.02922,108.561511 C1644.21557,108.70144 1680.28837,113.936203 1717.05309,123.741967 C1753.83329,133.235582 1791.02659,146.665137 1828.40577,161.608791 C1828.43159,161.619555 1828.46257,161.626731 1828.49355,161.641082 C1875.56478,180.527852 1924.72726,201.936923 1980.34939,220.594066 C2008.17078,229.893934 2037.71164,238.472632 2069.32826,245.189203 C2100.89841,251.902187 2134.65792,256.67411 2169.45015,258.195385 C2169.49146,258.198973 2169.53793,258.198973 2169.57408,258.198973 C2178.6878,258.385544 2187.79636,258.572115 2196.89976,258.758687 C2231.13432,258.629522 2264.11413,255.59056 2295.15243,251.148725 C2326.23204,246.696126 2355.49924,240.880121 2383.40324,234.856016 C2439.11831,222.743225 2489.92798,209.851857 2537.86152,202.159374 C2537.88734,202.155786 2537.91832,202.152198 2537.94414,202.145022 C2580.13062,195.557615 2623.59767,192.350022 2667.16282,192.493538 C2715.07572,193.114247 2763.13319,197.308516 2809.40407,206.156308 C2821.06344,208.136835 2832.40783,210.831357 2843.82968,213.328544 C2849.55609,214.562786 2855.07596,216.180934 2860.7146,217.569456 C2866.32225,219.02256 2871.98154,220.378791 2877.41879,222.097401 C2882.92317,223.719137 2888.41722,225.340874 2893.9216,226.96261 C2896.67896,227.762714 2899.30722,228.74939 2902.00261,229.628429 C2903.34515,230.080505 2904.69284,230.528995 2906.03021,230.981071 C2906.43297,231.113824 2906.1025,230.995423 2906.17995,231.016951 L2906.12315,230.991835 Z" id="Fill-11" mask="url(#mask-6)"></path>
                </g>
                <path d="M3076.94823,579.42276 C2939.43147,524.476093 2771.68477,507.147919 2617.09589,531.924483 C2501.15939,550.507803 2389.72589,591.898903 2270.98535,586.670327 C2159.07676,581.742986 2060.83722,536.28163 1963.79573,497.27172 C1866.74907,458.26181 1754.49449,423.469187 1645.66879,442.2354 C1528.89057,462.375099 1448.54421,538.763231 1335.85586,568.06549 C1217.61623,598.805787 1084.89164,572.774077 969.538674,537.142301 C854.180544,501.506938 741.765882,455.697727 616.37414,445.495191 C442.848949,431.383773 261.304099,494.707637 174.012195,599.806317 L174.012195,979 L3118.0122,979 L3076.94823,579.42276 Z" id="Fill-14" fill="#F0B774"></path>
                <g id="Group-18" transform="translate(83.012195, 457.000000)">
                    <mask id="mask-8" fill="white">
                        <use xlink:href="#path-7"></use>
                    </mask>
                    <g id="Clip-17"></g>
                    <path d="M0.369548497,91.6031136 C3.65871807,94.826233 5.30588462,96.4395852 5.30588462,96.4395852 C6.94788763,98.0493523 8.59505419,99.6591193 10.2370572,101.272472 C11.8842238,102.882239 13.5262268,104.492006 15.1733933,106.101773 L20.1045659,110.934659 C21.7517325,112.544426 23.3937355,114.154193 25.040902,115.767545 C26.682905,117.377313 28.3300716,118.990665 29.9720746,120.596847 C33.2612442,123.823551 36.5555773,127.043085 39.8395833,130.266205 C41.4867499,131.875972 43.1287529,133.485739 44.7759194,135.095506 C46.4179225,136.705273 48.065089,138.318625 49.707092,139.928392 C53.0014251,143.147926 56.2854312,146.374631 59.5797643,149.594165 L79.3096182,168.922125 C85.8931208,175.368364 92.47146,181.811017 99.0497991,188.250085 C102.338969,191.473205 105.628138,194.696324 108.917308,197.919443 C110.559311,199.52921 112.201314,201.138977 113.84848,202.748744 C115.495647,204.362097 117.13765,205.971864 118.784817,207.581631 C122.073986,210.801165 125.363156,214.024284 128.652325,217.243818 C130.294328,218.860756 131.941495,220.470523 133.583498,222.08029 C135.230664,223.690057 136.872667,225.299824 138.519834,226.913176 C140.161837,228.522943 141.809004,230.13271 143.451007,231.742477 C145.098173,233.35583 146.740176,234.965597 148.387343,236.575364 C150.029346,238.185131 151.676512,239.794898 153.318515,241.40825 C153.318515,241.40825 154.965682,243.021602 158.254851,246.241136 C158.352958,246.259063 158.451066,246.276989 158.554336,246.2985 L158.858985,246.352278 C159.664495,246.470591 160.47517,246.585318 161.280681,246.703631 C165.421833,247.316705 169.557822,247.886756 173.683483,248.252449 C181.929643,249.034028 190.232602,250.034307 198.452944,250.554165 C206.662959,251.020244 214.909119,251.57954 223.093316,251.89504 C231.236206,252.049205 239.384258,252.199784 247.527148,252.350364 C318.303674,252.253563 385.305659,242.537597 448.445322,227.748534 C448.481467,227.737778 448.517611,227.730608 448.553756,227.719852 C510.07207,213.185341 566.468162,194.746517 620.194707,177.143051 C673.916089,159.492977 725.251919,142.570705 776.123031,129.957875 C776.148849,129.950705 776.17983,129.943534 776.210811,129.936364 C832.694683,115.997 891.197494,107.600398 945.899947,108.220642 C987.450885,108.916176 1025.99148,115.036159 1058.94514,127.014403 L1059.01743,127.0395 C1076.69736,133.546688 1095.00208,142.671091 1114.08133,153.5415 C1133.20189,164.397568 1153.0505,176.942278 1174.9542,190.053455 C1196.89405,203.139534 1220.96127,216.928318 1249.59305,229.508881 C1278.04927,242.03208 1311.89622,253.225159 1349.2079,258.997375 C1349.25437,259.008131 1349.30085,259.015301 1349.34732,259.022472 C1371.32847,262.285028 1393.60395,263.80158 1415.44568,263.711949 C1463.53365,263.005659 1507.96068,254.98192 1547.0073,243.982443 C1586.4257,233.058256 1621.41896,219.301739 1654.27967,204.935733 C1654.31065,204.921392 1654.3468,204.910636 1654.37778,204.896295 C1693.52251,187.579648 1728.60871,170.327534 1762.57958,156.413267 C1796.47817,142.438051 1828.94645,132.01221 1860.26843,127.247443 L1860.34072,127.233102 C1878.48537,124.450966 1897.52848,123.26067 1917.36676,123.579756 C1932.48558,123.934693 1947.98651,125.021017 1963.7611,126.788534 C1979.57699,128.710216 1995.6459,131.323847 2011.85423,134.44658 C2028.08837,137.705551 2044.46709,141.505892 2060.92327,145.704193 C2077.40526,150.017222 2093.97503,154.710284 2110.64291,159.718847 C2110.67389,159.726017 2110.69971,159.736773 2110.73069,159.743943 C2155.62244,173.292517 2202.10455,189.114125 2252.49545,203.605614 C2302.78825,218.028983 2357.65593,231.244131 2417.38767,237.568472 C2417.42897,237.572057 2417.47028,237.579227 2417.51159,237.582813 C2445.14165,240.504773 2472.25019,241.770358 2498.39831,242.179074 C2531.20739,242.641568 2562.61199,241.867159 2592.65858,241.060483 C2622.58641,240.239466 2651.19237,239.454301 2678.44033,239.579784 C2683.80524,239.651489 2689.17531,239.726778 2694.54022,239.794898 L2710.28899,240.278903 C2710.31997,240.282489 2710.35095,240.282489 2710.38193,240.282489 C2749.82615,241.87433 2788.84696,247.768443 2820.88151,257.954074 C2836.87813,263.02717 2850.9849,269.147153 2862.3963,276.023619 C2865.22075,277.758869 2867.69408,279.608847 2870.47206,281.315415 C2872.89892,283.168977 2875.10375,285.079903 2877.56676,286.879688 C2878.15024,287.342182 2878.56332,287.86921 2879.08483,288.349631 C2879.49792,288.758347 2879.911,289.163477 2880.32925,289.568608 C2880.26728,289.478977 2880.20016,289.389347 2880.14336,289.303301 L2880.14336,521.328455 L163.526817,521.328455 C161.771216,429.632682 160.010452,337.936909 158.254851,246.241136 C154.965682,243.021602 153.318515,241.40825 153.318515,241.40825 C151.676512,239.794898 150.029346,238.185131 148.387343,236.575364 C146.740176,234.965597 145.098173,233.35583 143.451007,231.742477 C141.809004,230.13271 140.161837,228.522943 138.519834,226.913176 C136.872667,225.299824 135.230664,223.690057 133.583498,222.08029 C131.941495,220.470523 130.294328,218.860756 128.652325,217.243818 C125.363156,214.024284 122.073986,210.801165 118.784817,207.581631 C117.13765,205.971864 115.495647,204.362097 113.84848,202.748744 C112.201314,201.138977 110.559311,199.52921 108.917308,197.919443 C105.628138,194.696324 102.338969,191.473205 99.0497991,188.250085 C92.47146,181.811017 85.8931208,175.368364 79.3096182,168.922125 L59.5797643,149.594165 C56.2854312,146.374631 53.0014251,143.147926 49.707092,139.928392 C48.065089,138.318625 46.4179225,136.705273 44.7759194,135.095506 C43.1287529,133.485739 41.4867499,131.875972 39.8395833,130.266205 C36.5555773,127.043085 33.2612442,123.823551 29.9720746,120.596847 C28.3300716,118.990665 26.682905,117.377313 25.040902,115.767545 C23.3937355,114.154193 21.7517325,112.544426 20.1045659,110.934659 L15.1733933,106.101773 C13.5262268,104.492006 11.8842238,102.882239 10.2370572,101.272472 C8.59505419,99.6591193 6.94788763,98.0493523 5.30588462,96.4395852 C5.30588462,96.4395852 3.65871807,94.826233 0.369548497,91.6031136 C3.80329695,270.685216 7.23188187,449.760148 10.6656303,628.83508 L10.6656303,628.885273 L10.8050457,628.885273 L3035.04936,628.885273 L3035.04936,628.824324 L3035.04936,628.680915 L3035.04936,424.491466 L3035.04936,349.23396 L3035.04936,311.607 L3035.04936,292.791727 L3035.04936,277.464881 C3035.04936,271.194318 3034.68786,264.99546 3034.3987,258.778676 C3034.36772,258.739239 3034.33157,258.696216 3034.29543,258.656778 C3028.30573,251.558028 3022.3212,244.459278 3016.3315,237.364114 C3013.61548,233.800398 3009.65506,230.362165 3006.17484,226.877324 C3004.84781,225.604568 3003.51562,224.338983 3002.18859,223.069813 C3000.92352,221.904614 2999.73075,220.682051 2998.38823,219.574216 C2992.96136,215.200239 2987.53449,210.758142 2981.85977,206.574182 C2975.9785,202.626847 2970.12306,198.557614 2964.01976,194.846903 C2939.46717,180.057841 2912.54968,168.796642 2885.31205,160.141903 C2830.58378,142.957909 2774.78666,135.296278 2719.40779,132.908517 C2719.36648,132.908517 2719.32517,132.908517 2719.28903,132.904932 C2712.64356,132.700574 2706.00326,132.499801 2699.35779,132.291858 C2692.82076,132.205813 2686.2889,132.116182 2679.75186,132.026551 C2647.31972,131.883142 2616.27657,132.786619 2586.58627,133.586125 C2557.00956,134.392801 2528.74439,135.030972 2501.88369,134.650938 C2480.54282,134.321097 2460.1572,133.295722 2440.81461,131.248557 C2440.78363,131.244972 2440.75781,131.241386 2440.72683,131.237801 C2398.93837,126.853068 2355.98295,116.954256 2311.67985,104.205188 C2267.30962,91.4955568 2221.664,75.9966193 2172.56398,61.1250966 C2172.533,61.1179261 2172.49686,61.1107557 2172.46588,61.1 C2153.73775,55.467608 2134.59654,50.0359886 2114.98028,44.9091136 C2095.24526,39.8682841 2075.0352,35.1537102 2054.21584,30.9876761 C2033.26739,26.9291989 2011.76128,23.4049205 1989.57359,20.7339261 C1967.27746,18.2027557 1944.35654,16.5392102 1920.92444,16.0516193 C1890.0775,15.5496875 1858.23917,17.3889091 1826.86038,22.2182102 C1826.81391,22.2253807 1826.77777,22.2325511 1826.73646,22.2397216 C1799.67439,26.3985852 1774.04262,32.6046136 1750.25939,39.8431875 C1726.45035,47.0889318 1704.40723,55.342125 1683.7118,63.8391136 C1642.34675,80.8761136 1606.01098,98.8416875 1571.31205,114.11117 C1571.28623,114.121926 1571.25525,114.132682 1571.22943,114.147023 C1543.82141,126.146778 1516.35142,136.723199 1489.4804,144.119523 C1462.58873,151.781153 1436.62133,155.74283 1413.33896,156.165886 C1402.86732,156.137205 1392.90171,155.405818 1383.25623,154.072114 L1383.19427,154.061358 C1366.77424,151.508676 1350.07021,146.363875 1332.1889,138.519398 C1314.34374,130.717943 1295.70855,120.335125 1276.04066,108.557653 C1256.33146,96.7909375 1235.57923,83.6223977 1212.19876,70.3104489 C1188.82345,57.045108 1162.6082,43.4893636 1131.73028,32.0704148 C1131.68897,32.0560739 1131.65283,32.041733 1131.61152,32.027392 C1102.7732,21.4939943 1072.16378,13.7714148 1041.34266,8.71624432 C1010.49573,3.64673295 979.457738,1.18726705 949.039374,0.688920455 C909.114949,0.212085227 870.269701,3.01573295 832.787626,7.95617614 C795.284897,12.9145455 759.088541,20.0132955 724.043653,28.6608636 C724.007508,28.6716193 723.971363,28.682375 723.940382,28.6895455 C663.165616,43.8084489 607.373658,62.4121932 554.00856,79.8973466 C500.664116,97.4219375 449.483192,113.928324 398.71535,125.885057 C398.689532,125.892227 398.658551,125.899398 398.632734,125.902983 C348.551641,137.705551 296.683967,144.797131 247.614928,144.793545 C242.043477,144.689574 236.47719,144.585602 230.90574,144.47446 C225.401415,144.252176 219.984871,143.847045 214.516691,143.578153 C209.074328,143.255483 203.853998,142.538438 198.504579,142.083114 C195.809216,141.882341 193.22745,141.502307 190.666339,141.097176 C188.218825,140.745824 185.766147,140.398057 183.318633,140.046705 C181.738593,139.820835 180.163716,139.594966 178.578511,139.372682 C176.905527,139.046426 175.232543,138.72017 173.554395,138.39033 L163.506163,136.436381 C160.108559,135.593852 156.592194,134.342608 153.137792,133.317233 C146.203169,131.158926 139.268546,129.000619 132.333923,126.842313 C118.970704,123.113676 103.351021,116.757068 88.4439054,111.232233 C59.0014487,100.14671 29.5538286,89.0576023 0.10620839,77.9756648 C0.199151957,82.5181477 0.281768461,87.0606307 0.369548497,91.6031136" id="Fill-16" mask="url(#mask-8)"></path>
                </g>
                <path d="M741.012195,601.614241 C831.547751,632.797467 947.239975,627.084793 1046.98098,607.462424 C1146.72657,587.842713 1237.95965,555.742802 1337.14998,535.201092 C1436.33572,514.656724 1550.9679,506.749321 1643.98608,535.376457 C1730.24473,561.923118 1789.46064,617.1102 1884.76871,629.497401 C1960.68844,639.363055 2038.21889,618.794774 2103.89147,594.636808 C2169.56405,570.478843 2233.01557,541.540831 2308.98118,531.805372 C2397.97485,520.401282 2490.30928,537.209827 2573.87421,558.272321 C2657.44372,579.340129 2739.30615,605.166727 2829.41034,613.1007 C2913.20472,620.479348 2998.74749,611.85454 3083.3587,614.716191 C3167.97908,617.577842 3259.78119,635.996564 3299.0122,679.497907 L3299.0122,2121.73689 L747.932344,2121.73689 L741.012195,601.614241 Z" id="Fill-19" fill="#0092AF"></path>
            </g>
        </g>
    </g>
</svg>