<?xml version="1.0" encoding="UTF-8"?>
<svg width="4126px" height="2209px" viewBox="0 0 4126 2209" version="1.1" xmlns="http://www.w3.org/2000/svg" xmlns:xlink="http://www.w3.org/1999/xlink">
    <title>Group 15</title>
    <defs>
        <path d="M2502.30396,0.826727247 L2505.97555,0.86589566 C2531.70003,1.39111317 2558.6073,5.87698729 2584.90381,16.5750652 C2588.1683,17.961295 2591.41558,19.5412526 2594.64996,21.0566343 C2596.56392,21.9865275 2598.47788,22.9207259 2600.38323,23.8506192 C2602.43053,24.883834 2604.47782,25.7362361 2606.50791,27.0621951 C2614.33579,32.3488107 2622.16797,37.6354262 2630.00015,42.9220418 L2630.00015,42.9220418 L2650.39995,61.8212619 C2656.87301,68.4984124 2663.34606,75.1712577 2669.82342,81.8484082 C2669.86213,81.8871537 2669.89653,81.9302043 2669.93954,81.9689499 C2670.32664,88.8269129 2670.47717,95.7752822 2670.76104,102.676296 C2670.88577,106.128955 2671.0105,109.58592 2671.13523,113.038579 C2670.9976,116.607475 2670.70513,120.245252 2670.49438,123.848589 C2669.79331,134.80497 2669.09654,145.765657 2668.39977,156.726343 L2668.39977,156.726343 L2665.63851,200.035262 C2663.80197,228.905005 2661.96543,257.779053 2660.12459,286.648795 C2656.4472,344.388281 2652.76982,402.132071 2649.09244,459.871556 L2649.09244,459.871556 L2623.18731,866.674041 C2623.18301,866.734312 2623.17871,866.790278 2623.17441,866.846244 L2623.17441,866.846244 L2623.17011,866.910819 L0,866.910819 L0,575.21707 C0.236556832,570.627875 0.468812631,566.034374 0.705369463,561.445178 C1.19138623,552.275397 1.68170402,543.109921 2.17202182,533.94014 C2.15481769,533.875564 2.20643009,533.849734 2.26234352,533.828209 C10.1633417,529.815891 18.0643399,525.807879 25.9610371,521.795562 C33.8147239,517.852125 41.5522828,513.779537 49.4962913,509.943727 L49.4962913,509.943727 L74.1240081,499.374801 C78.1411732,497.695827 82.8551057,496.154615 86.7217346,494.76408 C89.2507422,493.894458 91.7883519,492.943039 94.3216605,492.155213 C114.596731,485.546943 134.850297,480.639173 154.897414,476.889465 C195.004549,469.437403 234.285886,466.501351 272.547879,465.459526 L272.547879,465.459526 L272.6382,465.459526 C323.760282,464.155093 371.940457,464.891258 416.744321,461.120024 C461.505175,457.465027 502.425206,449.139038 536.837774,432.388044 C536.859279,432.379433 536.876483,432.375128 536.897988,432.366518 C552.648372,424.759475 569.220253,414.397191 586.682449,402.545357 C604.179052,390.702133 622.565969,377.365052 642.927061,363.920345 C663.309658,350.531604 685.786858,336.841508 712.044666,325.635433 C738.121831,314.446578 768.684974,306.159334 800.448105,305.250966 L800.448105,305.250966 L800.568534,305.242356 C818.40922,304.717139 835.854211,306.421943 852.189536,309.551723 C868.550667,312.685808 883.849442,317.184597 898.137475,322.268875 C926.769453,332.502006 951.379966,344.930719 974.209851,356.291776 C996.983822,367.726019 1017.88254,378.294945 1037.04795,385.678126 C1056.22625,393.147408 1073.12501,397.060709 1086.99585,396.965997 C1092.56999,396.836845 1097.84305,396.212612 1103.07311,395.162177 L1103.07311,395.162177 L1103.12042,395.153566 C1113.15473,392.919239 1124.91376,387.546523 1138.3932,378.876129 C1151.86403,370.287531 1166.63378,358.65095 1183.26157,345.791731 C1199.97539,332.984173 1218.59456,318.661233 1241.95778,305.651337 C1247.78138,302.418236 1254.25873,299.400388 1260.43071,296.373929 C1266.95538,293.493843 1274.02198,290.940942 1280.85202,288.37943 C1288.08636,286.136493 1295.65618,284.255181 1303.09266,282.41692 C1310.85603,281.103876 1318.74843,280.087882 1326.59351,279.192429 L1326.59351,279.192429 L1326.72254,279.179514 C1330.92465,278.981481 1335.13106,278.835109 1339.33317,278.740397 C1355.2599,278.753313 1370.70061,280.910148 1384.86391,284.328367 C1399.06592,287.750891 1412.03354,292.357307 1423.9345,297.342568 C1447.71921,307.390582 1467.51257,318.77747 1485.44787,328.829788 C1503.24985,338.899327 1519.29271,347.750534 1533.34418,353.579587 C1547.47308,359.490437 1558.8321,361.991677 1567.85567,361.888356 C1569.04706,361.79795 1570.23414,361.733374 1571.42553,361.733374 L1571.42553,361.733374 C1580.0491,361.074699 1589.79094,357.936309 1602.18652,351.048211 C1614.48317,344.246214 1628.50454,333.982947 1644.08719,322.040706 C1659.74295,310.128601 1677.0288,296.412675 1698.15118,283.230577 C1703.59198,279.971645 1709.22634,276.764374 1714.79187,273.587239 C1720.77461,270.52634 1726.99821,267.577373 1733.13578,264.671456 C1739.73357,261.998013 1746.5378,259.501077 1753.28182,257.064413 C1760.46024,255.019508 1767.772,253.172637 1775.05795,251.429087 C1775.09666,251.420477 1775.13967,251.407562 1775.17838,251.398952 C1782.49014,250.2495 1789.85351,249.242116 1797.20397,248.376798 C1804.44261,248.028088 1811.67695,247.877411 1818.91559,247.804225 C1844.49383,248.592052 1867.53447,253.7366 1887.91276,259.755076 C1908.34267,265.833823 1926.45432,272.851073 1943.15524,279.274225 C1959.75723,285.714597 1974.88826,291.440329 1988.7978,295.616239 C2002.68154,299.809369 2015.16314,302.37088 2026.00604,303.038165 L2026.00604,303.038165 L2026.06195,303.046775 C2029.03827,302.995114 2032.00598,303.020944 2034.9823,303.128571 C2057.48961,302.401016 2082.08291,293.700486 2106.63321,278.404603 C2131.162,263.190515 2155.08865,242.147374 2177.3379,218.293028 L2177.3379,218.293028 L2177.39381,218.237063 C2201.99142,191.877171 2226.48581,161.388725 2254.82531,130.366452 C2283.12611,99.4948554 2315.97311,67.4781128 2357.1512,42.1083852 L2357.1512,42.1083852 L2357.24152,42.0524194 C2379.68001,28.2848326 2403.44322,18.0861418 2428.25158,11.0990269 C2453.05994,4.1635728 2479.00377,0.396643953 2505.97555,0.86589566 L2502.30396,0.826727247 Z M2503.51536,129.991911 C2477.66615,129.415033 2447.86429,137.779768 2424.80215,152.081182 C2424.78495,152.094097 2424.76344,152.107012 2424.74624,152.115623 C2398.94004,167.928114 2374.50587,190.740635 2349.95127,217.630049 C2325.31065,244.472108 2300.63992,275.231772 2271.77569,306.301401 L2271.77569,306.301401 L2271.70687,306.370282 C2243.81037,336.157003 2212.46444,364.579019 2174.52502,388.235333 C2155.54456,399.98815 2134.82218,410.45806 2112.12993,418.327713 C2089.49359,426.19306 2064.77556,431.328998 2039.33924,432.202926 C2032.61673,432.220146 2025.88561,432.16418 2019.1674,432.013503 C2019.12869,432.009198 2019.08998,432.004893 2019.05127,432.000588 C1994.30312,430.549782 1971.81302,425.349268 1951.64548,419.300657 C1931.46933,413.208994 1913.31467,406.183134 1896.73418,399.777202 C1880.23112,393.397101 1865.05277,387.667064 1851.35828,383.611696 C1837.65089,379.526193 1825.58649,377.240205 1815.51777,376.913021 C1812.84253,377.106748 1810.16729,377.132579 1807.49635,377.119664 C1805.02755,377.597525 1802.56306,377.920405 1800.05556,378.131353 L1800.05556,378.131353 L1800.01255,378.144268 C1790.54597,379.969614 1779.34608,384.761148 1766.23653,392.940765 C1753.15279,401.029975 1738.69272,412.193 1722.3789,424.699204 C1705.98336,437.149442 1687.71257,451.145197 1664.81817,463.961365 C1659.05478,467.134195 1652.75807,470.134823 1646.70652,473.126841 C1640.26787,475.968182 1633.37761,478.533998 1626.6766,481.091205 C1619.53689,483.321227 1612.13051,485.249894 1604.81875,487.113986 C1597.15001,488.44425 1589.38665,489.546346 1581.65339,490.489154 C1581.60608,490.489154 1581.55876,490.493459 1581.52006,490.493459 C1577.30934,490.725932 1573.09433,490.91966 1568.88362,491.035897 C1552.90528,491.173659 1537.38285,489.107229 1523.13783,485.753586 C1508.8627,482.399943 1495.82197,477.823663 1483.86509,472.855622 C1459.96855,462.842049 1440.12789,451.446551 1422.13666,441.364097 C1404.28307,431.273033 1388.21441,422.370165 1374.08982,416.467926 C1359.90931,410.483891 1348.42555,407.875023 1339.29446,407.892243 C1338.09447,407.986955 1336.89448,408.0257 1335.6902,408.01709 L1335.6902,408.01709 C1326.77415,408.645629 1316.89468,411.766799 1304.33566,418.710863 C1291.87987,425.564521 1277.70366,435.961245 1262.0264,448.092908 C1246.25451,460.194436 1228.99016,474.12131 1207.98822,487.630593 C1187.1153,501.006419 1161.7134,514.270314 1131.71369,521.093837 C1131.67498,521.102447 1131.63197,521.111057 1131.58896,521.119667 C1117.03856,524.296802 1102.16559,525.958556 1087.51197,526.117843 C1069.3014,526.182419 1051.78759,523.823246 1035.62,520.151028 C1019.41801,516.474505 1004.47622,511.52799 990.553777,506.150968 C962.726092,495.340958 938.717724,482.886415 916.47278,471.792272 C894.270846,460.667993 873.673197,450.585539 854.813166,443.925609 C835.901523,437.162357 819.170503,433.90773 804.577097,434.333931 L804.577097,434.333931 L804.525485,434.338236 C791.2697,434.751522 777.596715,438.079335 762.414068,444.536927 C747.287333,450.955774 731.029427,460.46996 713.907014,471.779357 C696.74159,483.080143 678.715959,496.12448 659.008625,509.504611 C639.275484,522.841691 617.787521,536.643719 593.052279,548.641925 C593.022172,548.65484 592.992064,548.672061 592.957656,548.684976 C565.800932,561.836939 537.504434,571.131567 509.625136,577.533193 C481.71143,583.956345 454.176214,587.594122 427.445292,589.828449 C373.961943,594.219612 323.442006,593.263888 276.061823,594.564017 C276.031716,594.564017 276.00591,594.564017 275.980103,594.568322 C242.204089,595.463775 209.357097,598.107082 178.544495,603.858645 C163.159699,606.730121 148.312532,610.380813 134.304066,614.952788 L134.304066,614.952788 L129.030999,616.760914 L129.030999,737.758973 L2502.10462,737.758973 C2514.83568,537.866356 2527.56674,337.978044 2540.2935,138.085427 C2538.91717,137.448278 2537.54514,136.802519 2536.17311,136.161064 C2527.11943,132.458712 2515.85073,130.2373 2503.51536,129.991911 Z" id="path-1"></path>
    </defs>
    <g id="Screens" stroke="none" stroke-width="1" fill="none" fill-rule="evenodd">
        <g id="Beach---Amenities" transform="translate(924.000000, -1572.000000)">
            <g id="Group-15" transform="translate(-924.000000, 1572.000000)">
                <g id="Group-3" transform="translate(1962.000000, 433.500000) scale(-1, 1) translate(-1962.000000, -433.500000) translate(626.000000, 0.000000)">
                    <mask id="mask-2" fill="white">
                        <use xlink:href="#path-1"></use>
                    </mask>
                    <g id="Clip-2"></g>
                    <path d="M129.030999,737.758973 L124.99663,741.797121 L120.966562,745.830964 L116.932193,749.869112 L112.902124,753.902954 L108.867755,757.941102 L104.837687,761.974945 L96.7732495,770.046935 L92.7388802,774.085083 L88.708812,778.118925 L80.6443746,786.190916 L64.5154996,802.334896 L48.3866247,818.478877 L40.3221873,826.550868 L36.2921191,830.589015 L32.2577498,834.622858 L24.1933124,842.694848 L20.1589431,846.732996 L16.1288749,850.766839 L12.0988067,854.804986 L8.06443746,858.838829 L4.03006821,862.876977 L0,866.910819 L2623.17011,866.910819 L2623.17441,866.846244 C2623.17871,866.790278 2623.18301,866.734312 2623.18731,866.674041 L2649.09244,459.871556 C2652.76982,402.132071 2656.4472,344.388281 2660.12459,286.648795 C2661.96543,257.779053 2663.80197,228.905005 2665.63851,200.035262 C2666.55893,185.596086 2667.47935,171.16552 2668.39977,156.726343 C2669.09654,145.765657 2669.79331,134.80497 2670.49438,123.848589 C2670.70513,120.245252 2670.9976,116.607475 2671.13523,113.038579 C2671.0105,109.58592 2670.88577,106.128955 2670.76104,102.676296 C2670.47717,95.7752822 2670.32664,88.8269129 2669.93954,81.9689499 C2669.89653,81.9302043 2669.86213,81.8871537 2669.82342,81.8484082 C2663.34606,75.1712577 2656.87301,68.4984124 2650.39995,61.8212619 L2630.00015,42.9220418 C2622.16797,37.6354262 2614.33579,32.3488107 2606.50791,27.0621951 C2604.47782,25.7362361 2602.43053,24.883834 2600.38323,23.8506192 C2598.47788,22.9207259 2596.56392,21.9865275 2594.64996,21.0566343 C2591.41558,19.5412526 2588.1683,17.961295 2584.90381,16.5750652 C2558.6073,5.87698729 2531.70003,1.39111317 2505.97555,0.86589566 C2479.00377,0.396643953 2453.05994,4.1635728 2428.25158,11.0990269 C2403.44322,18.0861418 2379.68001,28.2848326 2357.24152,42.0524194 L2357.1512,42.1083852 C2315.97311,67.4781128 2283.12611,99.4948554 2254.82531,130.366452 C2226.48581,161.388725 2201.99142,191.877171 2177.39381,218.237063 L2177.3379,218.293028 C2155.08865,242.147374 2131.162,263.190515 2106.63321,278.404603 C2082.08291,293.700486 2057.48961,302.401016 2034.9823,303.128571 C2032.00598,303.020944 2029.03827,302.995114 2026.06195,303.046775 L2026.00604,303.038165 C2015.16314,302.37088 2002.68154,299.809369 1988.7978,295.616239 C1974.88826,291.440329 1959.75723,285.714597 1943.15524,279.274225 C1926.45432,272.851073 1908.34267,265.833823 1887.91276,259.755076 C1867.53447,253.7366 1844.49383,248.592052 1818.91559,247.804225 C1811.67695,247.877411 1804.44261,248.028088 1797.20397,248.376798 C1789.85351,249.242116 1782.49014,250.2495 1775.17838,251.398952 C1775.13967,251.407562 1775.09666,251.420477 1775.05795,251.429087 C1767.772,253.172637 1760.46024,255.019508 1753.28182,257.064413 C1746.5378,259.501077 1739.73357,261.998013 1733.13578,264.671456 C1726.99821,267.577373 1720.77461,270.52634 1714.79187,273.587239 C1709.22634,276.764374 1703.59198,279.971645 1698.15118,283.230577 C1677.0288,296.412675 1659.74295,310.128601 1644.08719,322.040706 C1628.50454,333.982947 1614.48317,344.246214 1602.18652,351.048211 C1589.79094,357.936309 1580.0491,361.074699 1571.46424,361.733374 L1571.42553,361.733374 C1570.23414,361.733374 1569.04706,361.79795 1567.85567,361.888356 C1558.8321,361.991677 1547.47308,359.490437 1533.34418,353.579587 C1519.29271,347.750534 1503.24985,338.899327 1485.44787,328.829788 C1467.51257,318.77747 1447.71921,307.390582 1423.9345,297.342568 C1412.03354,292.357307 1399.06592,287.750891 1384.86391,284.328367 C1370.70061,280.910148 1355.2599,278.753313 1339.33317,278.740397 C1335.13106,278.835109 1330.92465,278.981481 1326.72254,279.179514 L1326.59351,279.192429 C1318.74843,280.087882 1310.85603,281.103876 1303.09266,282.41692 C1295.65618,284.255181 1288.08636,286.136493 1280.85202,288.37943 C1274.02198,290.940942 1266.95538,293.493843 1260.43071,296.373929 C1254.25873,299.400388 1247.78138,302.418236 1241.95778,305.651337 C1218.59456,318.661233 1199.97539,332.984173 1183.26157,345.791731 C1166.63378,358.65095 1151.86403,370.287531 1138.3932,378.876129 C1124.91376,387.546523 1113.15473,392.919239 1103.12042,395.153566 L1103.07311,395.162177 C1097.84305,396.212612 1092.56999,396.836845 1086.99585,396.965997 C1073.12501,397.060709 1056.22625,393.147408 1037.04795,385.678126 C1017.88254,378.294945 996.983822,367.726019 974.209851,356.291776 C951.379966,344.930719 926.769453,332.502006 898.137475,322.268875 C883.849442,317.184597 868.550667,312.685808 852.189536,309.551723 C835.854211,306.421943 818.40922,304.717139 800.568534,305.242356 C800.529825,305.242356 800.491115,305.246661 800.448105,305.250966 C768.684974,306.159334 738.121831,314.446578 712.044666,325.635433 C685.786858,336.841508 663.309658,350.531604 642.927061,363.920345 C622.565969,377.365052 604.179052,390.702133 586.682449,402.545357 C569.220253,414.397191 552.648372,424.759475 536.897988,432.366518 C536.876483,432.375128 536.859279,432.379433 536.837774,432.388044 C502.425206,449.139038 461.505175,457.465027 416.744321,461.120024 C371.940457,464.891258 323.760282,464.155093 272.6382,465.459526 L272.547879,465.459526 C234.285886,466.501351 195.004549,469.437403 154.897414,476.889465 C134.850297,480.639173 114.596731,485.546943 94.3216605,492.155213 C91.7883519,492.943039 89.2507422,493.894458 86.7217346,494.76408 C82.8551057,496.154615 78.1411732,497.695827 74.1240081,499.374801 L49.4962913,509.943727 C41.5522828,513.779537 33.8147239,517.852125 25.9610371,521.795562 C18.0643399,525.807879 10.1633417,529.815891 2.26234352,533.828209 C2.20643009,533.849734 2.15481769,533.875564 2.17202182,533.94014 C1.68170402,543.109921 1.19138623,552.275397 0.705369463,561.445178 C0.468812631,566.034374 0.236556832,570.627875 0,575.21707 L0,589.449604 L0,631.566021 L0,688.487544 L0,866.910819 L4.03006821,862.876977 L8.06443746,858.838829 L12.0988067,854.804986 L16.1288749,850.766839 L20.1589431,846.732996 L24.1933124,842.694848 L32.2577498,834.622858 L36.2921191,830.589015 L40.3221873,826.550868 L48.3866247,818.478877 L64.5154996,802.334896 L80.6443746,786.190916 L88.708812,778.118925 L92.7388802,774.085083 L96.7732495,770.046935 L104.837687,761.974945 L108.867755,757.941102 L112.902124,753.902954 L116.932193,749.869112 L120.966562,745.830964 L124.99663,741.797121 L129.030999,737.758973 L129.030999,616.760914 C130.790122,616.158205 132.544943,615.551192 134.304066,614.952788 C148.312532,610.380813 163.159699,606.730121 178.544495,603.858645 C209.357097,598.107082 242.204089,595.463775 275.980103,594.568322 C276.00591,594.564017 276.031716,594.564017 276.061823,594.564017 C323.442006,593.263888 373.961943,594.219612 427.445292,589.828449 C454.176214,587.594122 481.71143,583.956345 509.625136,577.533193 C537.504434,571.131567 565.800932,561.836939 592.957656,548.684976 C592.992064,548.672061 593.022172,548.65484 593.052279,548.641925 C617.787521,536.643719 639.275484,522.841691 659.008625,509.504611 C678.715959,496.12448 696.74159,483.080143 713.907014,471.779357 C731.029427,460.46996 747.287333,450.955774 762.414068,444.536927 C777.596715,438.079335 791.2697,434.751522 804.525485,434.338236 L804.577097,434.333931 C819.170503,433.90773 835.901523,437.162357 854.813166,443.925609 C873.673197,450.585539 894.270846,460.667993 916.47278,471.792272 C938.717724,482.886415 962.726092,495.340958 990.553777,506.150968 C1004.47622,511.52799 1019.41801,516.474505 1035.62,520.151028 C1051.78759,523.823246 1069.3014,526.182419 1087.51197,526.117843 C1102.16559,525.958556 1117.03856,524.296802 1131.58896,521.119667 C1131.63197,521.111057 1131.67498,521.102447 1131.71369,521.093837 C1161.7134,514.270314 1187.1153,501.006419 1207.98822,487.630593 C1228.99016,474.12131 1246.25451,460.194436 1262.0264,448.092908 C1277.70366,435.961245 1291.87987,425.564521 1304.33566,418.710863 C1316.89468,411.766799 1326.77415,408.645629 1335.65149,408.0257 L1335.6902,408.01709 C1336.89448,408.0257 1338.09447,407.986955 1339.29446,407.892243 C1348.42555,407.875023 1359.90931,410.483891 1374.08982,416.467926 C1388.21441,422.370165 1404.28307,431.273033 1422.13666,441.364097 C1440.12789,451.446551 1459.96855,462.842049 1483.86509,472.855622 C1495.82197,477.823663 1508.8627,482.399943 1523.13783,485.753586 C1537.38285,489.107229 1552.90528,491.173659 1568.88362,491.035897 C1573.09433,490.91966 1577.30934,490.725932 1581.52006,490.493459 C1581.55876,490.493459 1581.60608,490.489154 1581.65339,490.489154 C1589.38665,489.546346 1597.15001,488.44425 1604.81875,487.113986 C1612.13051,485.249894 1619.53689,483.321227 1626.6766,481.091205 C1633.37761,478.533998 1640.26787,475.968182 1646.70652,473.126841 C1652.75807,470.134823 1659.05478,467.134195 1664.81817,463.961365 C1687.71257,451.145197 1705.98336,437.149442 1722.3789,424.699204 C1738.69272,412.193 1753.15279,401.029975 1766.23653,392.940765 C1779.34608,384.761148 1790.54597,379.969614 1800.01255,378.144268 L1800.05556,378.131353 C1802.56306,377.920405 1805.02755,377.597525 1807.49635,377.119664 C1810.16729,377.132579 1812.84253,377.106748 1815.51777,376.913021 C1825.58649,377.240205 1837.65089,379.526193 1851.35828,383.611696 C1865.05277,387.667064 1880.23112,393.397101 1896.73418,399.777202 C1913.31467,406.183134 1931.46933,413.208994 1951.64548,419.300657 C1971.81302,425.349268 1994.30312,430.549782 2019.05127,432.000588 C2019.08998,432.004893 2019.12869,432.009198 2019.1674,432.013503 C2025.88561,432.16418 2032.61673,432.220146 2039.33924,432.202926 C2064.77556,431.328998 2089.49359,426.19306 2112.12993,418.327713 C2134.82218,410.45806 2155.54456,399.98815 2174.52502,388.235333 C2212.46444,364.579019 2243.81037,336.157003 2271.70687,306.370282 L2271.77569,306.301401 C2300.63992,275.231772 2325.31065,244.472108 2349.95127,217.630049 C2374.50587,190.740635 2398.94004,167.928114 2424.74624,152.115623 C2424.76344,152.107012 2424.78495,152.094097 2424.80215,152.081182 C2447.86429,137.779768 2477.66615,129.415033 2503.51536,129.991911 C2515.85073,130.2373 2527.11943,132.458712 2536.17311,136.161064 C2537.54514,136.802519 2538.91717,137.448278 2540.2935,138.085427 C2527.56674,337.978044 2514.83568,537.866356 2502.10462,737.758973 L129.030999,737.758973 Z" id="Fill-1" mask="url(#mask-2)"></path>
                </g>
                <path d="M0,867 L2926.30267,867 L2978,174.916581 C2918.20119,115.371936 2803.62165,121.550408 2725.32747,162.598333 C2647.0333,203.646259 2592.99823,270.220689 2530.34274,327.589755 C2467.69228,384.954521 2385.52874,436.923336 2293.77241,432.75276 C2198.82687,428.435999 2111.79639,364.424109 2018.49332,380.040121 C1925.91071,395.540045 1865.31082,484.86776 1771.26208,491.252611 C1668.89018,498.209304 1586.26313,402.76331 1483.81566,408.842892 C1388.13957,414.526914 1326.90486,505.084305 1233.3801,523.228459 C1106.66849,547.813359 994.421652,431.553182 864.546028,435.001432 C759.241876,437.804746 681.078697,516.452348 586.218806,555.57407 C482.224596,598.466508 361.241456,592.412724 245.775184,595.022558 C161.818035,596.927265 72.2734824,606.360505 0,639.566029 L0,867 Z" id="Fill-4" fill="#FFF3E0" opacity="0.5" transform="translate(1489.000000, 499.000000) scale(-1, 1) translate(-1489.000000, -499.000000) "></path>
                <path d="M591.897849,950.298821 C594.997203,866.853376 695.807752,548.551409 800.998478,538.588488 C906.195246,528.629251 1013.36763,545.118713 1114.93338,562.510547 C1216.49309,579.902381 1321.27298,598.638565 1427.69016,593.220651 C1632.56165,582.782604 1808.87438,484.755569 2011.71589,502.99821 C2094.81844,510.467638 2166.17607,536.809527 2239.87784,558.131282 C2313.57358,579.45672 2400.35548,596.542852 2480.92658,583.585531 C2579.93069,567.65959 2638.58882,511.469455 2736.34231,493.584079 C2881.81255,466.965955 3044.59204,535.325217 3190.59998,509.513703 C3259.58929,497.318793 3309.3904,466.25879 3350.18345,434.856253 C3390.97046,403.446351 3427.8425,369.513491 3485.03856,346.037093 C3542.24066,322.557012 3627.58465,312.303123 3687.79548,333.646977 C3754.90585,357.436442 3782.29253,414.98566 3863.49801,415.600746 C3920.34365,416.031674 3958.23672,386.606989 3989.39942,361.870954 C4020.55004,337.13492 4072.50197,310.88511 4125.89785,321.028505 L4120.55101,991.207568 L591.897849,950.298821 Z" id="Fill-9" fill="#FFF3E0" opacity="0.5" transform="translate(2358.897849, 655.000000) scale(-1, 1) translate(-2358.897849, -655.000000) "></path>
                <path d="M2166,376 C2131.76781,485.018059 2006.35159,556.442943 1895.02921,530.301822 C1836.09839,516.463923 1776.54806,479.296331 1719.49297,499.500782 C1671.71762,516.420935 1645.74125,567.70585 1604.08785,596.563824 C1559.46597,627.472335 1500.77177,629.806594 1447.13259,621.393805 C1393.49341,612.981015 1341.52346,595.042042 1287.54441,589.238636 C1139.94632,573.380291 986.841475,659.614608 924,794 L2156.9784,794 L2166,376 Z" id="Fill-14" fill="#FFF3E0" opacity="0.5" transform="translate(1545.000000, 585.000000) scale(-1, 1) translate(-1545.000000, -585.000000) "></path>
                <path d="M840,2209 L3338.85416,2209 L3383,386.916581 C3331.93607,327.371936 3234.0933,333.550408 3167.23565,374.598333 C3100.378,415.646259 3054.23589,482.220689 3000.73256,539.589755 C2947.23354,596.954521 2877.07172,648.923336 2798.71834,644.75276 C2717.64161,640.435999 2643.32378,576.424109 2563.6496,592.040121 C2484.59064,607.540045 2432.84265,696.86776 2352.53172,703.252611 C2265.11341,710.209304 2194.55579,614.76331 2107.07294,620.842892 C2025.37237,626.526914 1973.08229,717.084305 1893.21881,735.228459 C1785.01611,759.813359 1689.1653,643.553182 1578.26076,647.001432 C1488.33851,649.804746 1421.59272,728.452348 1340.58913,767.57407 C1251.78548,810.466508 1148.47449,804.412724 1049.87451,807.022558 C978.181082,808.927265 901.716409,818.360505 840,851.566029 L840,2209 Z" id="Fill-4" fill="#FFF3E0" transform="translate(2111.500000, 1276.000000) scale(-1, 1) translate(-2111.500000, -1276.000000) "></path>
            </g>
        </g>
    </g>
</svg>